<svg viewBox="0 0 16 16" ><path d="M4.095 15.465c.287 0 .499-.137.84-.444l2.523-2.277 4.47.007c2.058 0 3.214-1.19 3.214-3.22V4.22c0-2.03-1.156-3.22-3.213-3.22H3.213C1.163 1 0 2.19 0 4.22V9.53c0 2.037 1.196 3.22 3.165 3.213h.273v1.983c0 .45.24.738.657.738zM3.958 5.156a.454.454 0 01-.444-.45c0-.24.198-.438.444-.438h7.157c.246 0 .445.198.445.437a.45.45 0 01-.445.451H3.958zm0 2.256a.454.454 0 01-.444-.451c0-.24.198-.444.444-.444h7.157a.448.448 0 010 .895H3.958zm0 2.256a.448.448 0 010-.896h4.669c.246 0 .437.206.437.452a.438.438 0 01-.437.444H3.958z"></path></svg>