<svg viewBox="0 0 26 23"
 class="audio" 
><path d="M0 6.06667V16.4667H5.2L12.1333 22.5333V0L5.2 6.06667H0ZM4.33333 14.7333H1.73333V7.8H4.33333V14.7333ZM6.06667 7.61193L10.4 3.8194V18.7139L6.06667 14.9214V7.61193ZM19.0667 11.2667C19.0667 8.84433 17.6445 6.76087 15.5931 5.78847L14.586 7.24447C16.1928 7.87627 17.3333 9.43453 17.3333 11.2684C17.3333 13.1023 16.1928 14.6588 14.586 15.2923L15.5931 16.7483C17.6445 15.7725 19.0667 13.689 19.0667 11.2667ZM19.5607 0.0563333L18.5718 1.48287C21.9709 3.42247 24.2658 7.07373 24.2658 11.2667C24.2658 15.4596 21.9709 19.1109 18.5727 21.0505L19.5615 22.477C23.4087 20.2193 26 16.0507 26 11.2667C26 6.48267 23.4087 2.314 19.5607 0.0563333ZM22.5333 11.2667C22.5333 7.6648 20.5339 4.53093 17.5855 2.9094L16.5915 4.34547C19.0918 5.64547 20.8 8.25413 20.8 11.2649C20.8 14.2757 19.0901 16.8844 16.5915 18.1844L17.5855 19.6205C20.5339 18.0015 22.5333 14.8685 22.5333 11.2667Z"></path></svg>