 <svg viewBox="0 0 14 14" 
  xmlns="http://www.w3.org/2000/svg">
        <path
            d="M7.003 11.92c-2.807-.319-4.578-1.564-5.454-3.46a6.605 6.605 0 01-.54-3.536l.988.152c-.003.022-.01.072-.016.149a5.641 5.641 0 00.476 2.815c.714 1.548 2.151 2.58 4.546 2.874V9l4 2.5-4 2.5v-2.08zm0-9.84V0l-4 2.5 4 2.5V3.086c2.395.294 3.832 1.326 4.546 2.874a5.641 5.641 0 01.46 2.964l.988.152a6.605 6.605 0 00-.54-3.536C11.582 3.644 9.811 2.4 7.003 2.08z"
            fill="currentColor" fill-rule="evenodd"></path>
    </svg>