    <?xml version="1.0" encoding="UTF-8"?>
  <svg xmlns="http://www.w3.org/2000/svg" width="24" height="24" fill="none" viewBox="0 0 32 32" id="icon-frame-pad">
            <path fill-rule="evenodd" clip-rule="evenodd"
                d="M23 21.5H9a.5.5 0 0 1-.5-.5V11a.5.5 0 0 1 .5-.5h14a.5.5 0 0 1 .5.5v10a.5.5 0 0 1-.5.5ZM7 11a2 2 0 0 1 2-2h14a2 2 0 0 1 2 2v10a2 2 0 0 1-2 2H9a2 2 0 0 1-2-2V11Zm6.75 8a.75.75 0 0 0 0 1.5h4.5a.75.75 0 0 0 0-1.5h-4.5Z"
                fill="currentColor"></path>
        </svg>