    <?xml version="1.0" encoding="UTF-8"?>
  <svg xmlns="http://www.w3.org/2000/svg" 
  width="24" 
  height="24" 
  fill="none" 
  viewBox="0 0 32 32"  
   id="icon-icon_frame_3_4">
            <path fill-rule="evenodd" clip-rule="evenodd"
                d="M10.5 25a2 2 0 0 1-2-2V9a2 2 0 0 1 2-2h11a2 2 0 0 1 2 2v14a2 2 0 0 1-2 2h-11Zm-.5-2V9a.5.5 0 0 1 .5-.5h11a.5.5 0 0 1 .5.5v14a.5.5 0 0 1-.5.5h-11a.5.5 0 0 1-.5-.5Z"
                fill="currentColor"></path>
            <path
                d="M12.465 18.438c-.388 0-.732-.116-1.031-.249a1.736 1.736 0 0 1-.706-.554c-.073-.1-.131-.206-.174-.318-.099-.26.137-.495.416-.495h.412c.18 0 .318.154.427.296.066.084.156.2.27.249a.998.998 0 0 0 .39.072.91.91 0 0 0 .386-.077.646.646 0 0 0 .263-.216.539.539 0 0 0 .092-.319.504.504 0 0 0-.102-.318.673.673 0 0 0-.295-.216 1.18 1.18 0 0 0-.448-.077h-.057a.438.438 0 0 1 0-.875h.057c.151 0 .284-.025.398-.075a.631.631 0 0 0 .27-.209.515.515 0 0 0 .095-.313.545.545 0 0 0-.313-.505.924.924 0 0 0-.711 0 .633.633 0 0 0-.26.204c-.109.147-.247.256-.43.256h-.342c-.279 0-.515-.235-.417-.495.041-.108.096-.21.165-.305.165-.232.39-.414.676-.545.286-.13.612-.146.979-.146.364 0 .685.064.962.191.276.128.492.302.646.522.154.22.231.467.231.744a.942.942 0 0 1-.28.708c-.188.186-.43.3-.724.343v.04c.394.046.692.174.892.383.202.209.303.47.3.783 0 .295-.086.557-.26.785a1.728 1.728 0 0 1-.721.537c-.307.13-.659.194-1.056.194Z"
                fill="currentColor"></path>
            <path fill-rule="evenodd" clip-rule="evenodd"
                d="M17.258 17.093a.5.5 0 0 0 .5.5h1.958v.345a.5.5 0 0 0 .5.5h.176a.5.5 0 0 0 .5-.5v-.345h.124a.485.485 0 0 0 0-.97h-.124v-2.776a.5.5 0 0 0-.5-.5h-.774a.5.5 0 0 0-.422.232l-1.86 2.932a.5.5 0 0 0-.078.268v.314Zm2.483-2.443h-.04l-1.22 1.934v.04h1.26V14.65Z"
                fill="currentColor"></path>
            <path
                d="M15.854 17.636a.631.631 0 0 1-.46-.189.614.614 0 0 1-.187-.457.6.6 0 0 1 .187-.45.631.631 0 0 1 .46-.189c.169 0 .318.063.447.189a.606.606 0 0 1 .105.776.678.678 0 0 1-.237.233.6.6 0 0 1-.315.087ZM15.394 15.152c.127.126.28.189.46.189a.6.6 0 0 0 .315-.087.678.678 0 0 0 .236-.234.606.606 0 0 0-.104-.776.622.622 0 0 0-.447-.188.631.631 0 0 0-.46.189.6.6 0 0 0-.187.45.614.614 0 0 0 .187.457Z"
                fill="currentColor"></path>
  </svg>