    <?xml version="1.0" encoding="UTF-8"?>
  <svg xmlns="http://www.w3.org/2000/svg" width="24" height="24" fill="none" viewBox="0 0 32 32"   id="icon-frame-1-1">
            <path fill-rule="evenodd" clip-rule="evenodd"
                d="M10 8a2 2 0 0 0-2 2v12a2 2 0 0 0 2 2h12a2 2 0 0 0 2-2V10a2 2 0 0 0-2-2H10Zm0 14.5h12a.5.5 0 0 0 .5-.5V10a.5.5 0 0 0-.5-.5H10a.5.5 0 0 0-.5.5v12a.5.5 0 0 0 .5.5Zm3.728-9.5a.5.5 0 0 1 .5.5V18a.5.5 0 0 1-.5.5H13.5a.5.5 0 0 1-.5-.5v-3.851h-.03l-.446.272a.455.455 0 0 1-.478-.774l.92-.572A.5.5 0 0 1 13.23 13h.498Zm6.28.5a.5.5 0 0 0-.5-.5h-.498a.5.5 0 0 0-.264.075l-.919.572a.455.455 0 0 0 .477.774l.447-.272h.03V18a.5.5 0 0 0 .5.5h.228a.5.5 0 0 0 .5-.5v-4.5Zm-3.654 1.785a.631.631 0 0 1-.46-.189.614.614 0 0 1-.187-.457.6.6 0 0 1 .187-.45.631.631 0 0 1 .46-.189c.169 0 .318.063.447.189a.606.606 0 0 1 .105.775.677.677 0 0 1-.237.234.6.6 0 0 1-.315.087Zm-.46 2.061c.127.126.28.19.46.19a.6.6 0 0 0 .315-.088.677.677 0 0 0 .331-.56.606.606 0 0 0-.199-.45.622.622 0 0 0-.447-.188.631.631 0 0 0-.46.189.6.6 0 0 0-.187.45.614.614 0 0 0 .187.457Z"
                fill="currentColor"></path>
        </svg>