<?xml version="1.0" encoding="UTF-8"?>
<svg xmlns="http://www.w3.org/2000/svg"  fill="none" viewBox="0 0 32 32"   id="icon-frame-1-1">
            <path fill-rule="evenodd" clip-rule="evenodd"
                d="M11.693 19.473a1 1 0 0 0 .987 1.163h3.28c.902 0 1.665-.136 2.29-.409.625-.276 1.116-.65 1.472-1.119.36-.474.59-1.008.693-1.602.095-.603.055-1.114-.12-1.534-.174-.42-.428-.745-.76-.972a1.995 1.995 0 0 0-1.063-.375l.022-.114c.364-.09.71-.236 1.04-.437.33-.2.61-.466.841-.796.235-.33.392-.736.472-1.221.098-.576.053-1.093-.137-1.551-.19-.462-.534-.828-1.034-1.097C19.18 9.136 18.52 9 17.693 9H14.28a1 1 0 0 0-.986.836l-1.6 9.637Zm4.347-.342h-2.534l.625-3.728h2.596c.47 0 .86.091 1.17.273.315.182.539.426.671.733.136.307.176.644.12 1.012-.088.488-.341.895-.762 1.221-.416.326-1.045.489-1.886.489Zm.67-5.097h-2.346l.58-3.54h2.397c.693 0 1.18.163 1.46.489.284.322.385.725.301 1.21-.056.371-.2.695-.431.972-.228.276-.514.49-.858.642-.341.151-.709.227-1.103.227ZM10.75 22a.75.75 0 0 0 0 1.5h10.5a.75.75 0 0 0 0-1.5h-10.5Z"
               fill="currentColor">
    </path>
</svg>