    <?xml version="1.0" encoding="UTF-8"?>
  <svg xmlns="http://www.w3.org/2000/svg" width="24" height="24" fill="none"  viewBox="0 0 32 32" id="icon-frame-4-3">
            <path fill-rule="evenodd" clip-rule="evenodd"
                d="M7 11a2 2 0 0 1 2-2h14a2 2 0 0 1 2 2v10a2 2 0 0 1-2 2H9a2 2 0 0 1-2-2V11Zm2-.5h14a.5.5 0 0 1 .5.5v10a.5.5 0 0 1-.5.5H9a.5.5 0 0 1-.5-.5V11a.5.5 0 0 1 .5-.5Z"
                fill="currentColor"></path>
            <path
                d="M19.962 18.847c-.388 0-.731-.116-1.031-.249a1.737 1.737 0 0 1-.706-.554c-.073-.1-.131-.206-.174-.318-.098-.26.137-.495.416-.495h.413c.178 0 .317.154.426.296.066.084.156.201.27.249a.999.999 0 0 0 .39.072.908.908 0 0 0 .386-.077.646.646 0 0 0 .263-.216.54.54 0 0 0 .092-.318.505.505 0 0 0-.102-.319.672.672 0 0 0-.295-.216 1.181 1.181 0 0 0-.448-.077h-.057a.438.438 0 0 1 0-.875h.057a.99.99 0 0 0 .398-.075.631.631 0 0 0 .27-.208.515.515 0 0 0 .095-.314.543.543 0 0 0-.313-.505.762.762 0 0 0-.34-.071.922.922 0 0 0-.37.072.63.63 0 0 0-.262.204c-.108.147-.246.255-.429.255h-.342c-.279 0-.515-.234-.417-.495.041-.108.096-.21.165-.305.165-.232.39-.414.676-.544.287-.131.612-.147.979-.147.364 0 .685.064.962.192.276.127.492.301.646.522.154.219.231.466.231.743a.943.943 0 0 1-.28.708c-.188.186-.43.3-.724.343v.04c.394.047.692.174.892.383.202.209.303.47.301.783 0 .295-.087.557-.261.786a1.73 1.73 0 0 1-.72.537c-.307.129-.66.193-1.057.193Z"
                fill="currentColor"></path>
            <path fill-rule="evenodd" clip-rule="evenodd"
                d="M10.354 17.502a.5.5 0 0 0 .5.5h1.958v.345a.5.5 0 0 0 .5.5h.176a.5.5 0 0 0 .5-.5v-.345h.124a.485.485 0 1 0 0-.97h-.124v-2.775a.5.5 0 0 0-.5-.5h-.774a.5.5 0 0 0-.422.232l-1.86 2.931a.5.5 0 0 0-.079.268v.314Zm2.482-2.443h-.04l-1.22 1.934v.04h1.26v-1.974Z"
                fill="currentColor"></path>
            <path
                d="M16.354 18.046a.631.631 0 0 1-.46-.19.614.614 0 0 1-.187-.457.6.6 0 0 1 .187-.45.631.631 0 0 1 .46-.189c.169 0 .318.063.447.19a.606.606 0 0 1 .105.775.677.677 0 0 1-.237.233.6.6 0 0 1-.315.088ZM15.894 15.561c.127.126.28.19.46.19a.6.6 0 0 0 .315-.088.677.677 0 0 0 .331-.56.606.606 0 0 0-.199-.45.622.622 0 0 0-.447-.188.631.631 0 0 0-.46.189.6.6 0 0 0-.187.45.614.614 0 0 0 .187.457Z"
                fill="currentColor"></path>
        </svg>