    <?xml version="1.0" encoding="UTF-8"?>
  <svg xmlns="http://www.w3.org/2000/svg" width="24" height="24" fill="none" viewBox="0 0 32 32" id="icon-frame-16-9">
            <path fill-rule="evenodd" clip-rule="evenodd"
                d="M12.32 18.866c.255.09.522.134.8.134.39 0 .732-.076 1.027-.226.297-.151.529-.362.696-.632.167-.271.25-.585.249-.94a1.705 1.705 0 0 0-.197-.837 1.49 1.49 0 0 0-.55-.58 1.534 1.534 0 0 0-.807-.21c-.19 0-.371.03-.542.089a1.406 1.406 0 0 0-.45.251c-.13.11-.231.24-.3.393h-.033c.003-.453.081-.814.234-1.084a.754.754 0 0 1 .698-.405.751.751 0 0 1 .478.156l.085.07c.156.13.318.266.515.266h.256c.297 0 .535-.264.408-.532a1.74 1.74 0 0 0-.8-.8 2.04 2.04 0 0 0-.942-.21c-.325 0-.619.063-.882.187-.262.123-.487.301-.676.535a2.505 2.505 0 0 0-.433.852c-.101.333-.152.71-.154 1.129-.002.464.055.857.169 1.18.114.322.271.582.47.781.199.197.426.341.681.433Zm1.198-.918a.775.775 0 0 1-.405.107.762.762 0 0 1-.403-.107.79.79 0 0 1-.278-.293.853.853 0 0 1 .122-.987.759.759 0 0 1 .561-.236.766.766 0 0 1 .684.395c.068.121.101.26.1.415a.822.822 0 0 1-.1.416.764.764 0 0 1-.28.29Z"
                fill="currentColor"></path>
            <path
                d="M10.228 14.409a.5.5 0 0 0-.5-.5H9.23a.5.5 0 0 0-.264.075l-.92.572a.455.455 0 0 0 .478.774l.447-.273H9V18.5a.5.5 0 0 0 .5.5h.227a.5.5 0 0 0 .5-.5v-4.091ZM17.354 18.277a.631.631 0 0 1-.46-.19.614.614 0 0 1-.187-.457.6.6 0 0 1 .187-.45.631.631 0 0 1 .46-.189c.169 0 .318.064.447.19a.606.606 0 0 1 .105.775.678.678 0 0 1-.237.234.6.6 0 0 1-.315.087ZM17.354 16a.631.631 0 0 1-.46-.19.614.614 0 0 1-.187-.457.6.6 0 0 1 .187-.45.631.631 0 0 1 .46-.189c.169 0 .318.063.447.19a.606.606 0 0 1 .105.775.677.677 0 0 1-.237.234.6.6 0 0 1-.315.087Z"
                fill="currentColor"></path>
            <path fill-rule="evenodd" clip-rule="evenodd"
                d="M22.27 13.907a2.342 2.342 0 0 0-.799-.137 2.205 2.205 0 0 0-1.031.226c-.297.15-.528.361-.694.631a1.717 1.717 0 0 0-.246.93c.002.313.068.592.199.835.132.244.315.435.547.575.233.139.503.208.808.208.189 0 .368-.029.539-.087.17-.058.32-.141.45-.25.13-.11.232-.24.303-.393h.03c0 .464-.077.83-.231 1.1a.754.754 0 0 1-.699.406.756.756 0 0 1-.49-.166 5.76 5.76 0 0 1-.053-.049c-.16-.143-.328-.295-.537-.295h-.254c-.298 0-.536.265-.412.536a1.688 1.688 0 0 0 .8.817c.273.137.588.206.946.206.325 0 .62-.061.883-.184.263-.124.489-.304.676-.54.189-.235.334-.52.435-.854.101-.337.15-.717.15-1.142 0-.46-.058-.85-.172-1.17a2.015 2.015 0 0 0-.47-.773 1.812 1.812 0 0 0-.679-.43Zm-1.199.914a.78.78 0 0 1 .408-.107c.149 0 .282.037.4.11.12.071.213.167.28.288a.829.829 0 0 1-.121.975.778.778 0 0 1-.564.233.762.762 0 0 1-.679-.395.854.854 0 0 1-.102-.408.8.8 0 0 1 .1-.407.776.776 0 0 1 .278-.289Z"
                fill="currentColor"></path>
            <path fill-rule="evenodd" clip-rule="evenodd"
                d="M5 12a2 2 0 0 1 2-2h18.002a2 2 0 0 1 2 2v8a2 2 0 0 1-2 2H7a2 2 0 0 1-2-2v-8Zm20.002 8.5H7a.5.5 0 0 1-.5-.5v-8a.5.5 0 0 1 .5-.5h18.002a.5.5 0 0 1 .5.5v8a.5.5 0 0 1-.5.5Z"
                fill="currentColor"></path>
        </svg>