
<svg width="36" height="89" viewBox="0 0 36 89" fill="none" xmlns="http://www.w3.org/2000/svg" class="pen-pc--item-icon pen-pc--item-hover" style="color: rgb(245, 220, 78);">
<g clip-path="url(#clip0_46_124512)">
<g filter="url(#filter0_f_46_124512)">
<path fill-rule="evenodd" clip-rule="evenodd" d="M19.6426 24.5308C19.2093 24.5308 18.8581 24.9785 18.8581 25.5308V29.7944H18.8496L13.3687 35.3877L10.5508 83.0849L10.5508 90.5184C10.5508 91.0707 10.902 91.5184 11.3353 91.5184H30.155C30.5883 91.5184 30.9396 91.0707 30.9396 90.5184V83.0854L28.1217 35.3877L22.6407 29.7944H22.6287V25.5308C22.6287 24.9785 22.2774 24.5308 21.8441 24.5308L19.6426 24.5308Z" fill="black" fill-opacity="0.2"></path>
</g>
<g filter="url(#filter1_f_46_124512)">
<path fill-rule="evenodd" clip-rule="evenodd" d="M14.8706 8.75277C15.1587 7.2304 12.3031 6.25804 13.6614 6.58094C16.0946 7.15935 18.8604 8.2812 20.8923 9.69888C21.8776 10.3863 22.9372 11.3112 23.6017 12.5098C23.9515 13.1406 24.246 13.9459 24.2741 14.8865C24.3033 15.8634 24.0379 16.7722 23.5659 17.5422C22.5705 19.1665 20.9549 19.6388 19.9534 19.8281C19.4018 19.9324 18.8059 19.9872 18.244 20.0207C18.6448 20.3599 19.0483 20.7673 19.4116 21.2599C20.2637 22.415 20.7907 23.8926 20.7907 25.7012C20.7907 27.2575 19.6651 28.519 18.2766 28.519C16.888 28.519 19.9527 27.2575 19.9527 25.7012C19.9527 25.2108 19.8376 25.0014 19.7265 24.8508C19.5589 24.6236 19.2623 24.3695 18.7088 24.0363C18.5083 23.9156 18.321 23.811 18.1053 23.6904C18.0174 23.6413 17.9247 23.5895 17.8245 23.533C17.517 23.3594 17.1288 23.1349 16.7629 22.8684C16.0991 22.3849 14.8161 21.2591 14.816 19.2192C14.816 18.2239 15.0824 17.2378 15.6896 16.4164C16.2598 15.645 16.9767 15.2275 17.5653 14.9898C18.655 14.5496 19.9498 14.4877 20.8307 14.4501C21.0044 14.4427 21.1701 14.4362 21.3286 14.43C21.6789 14.4162 21.9942 14.4039 22.2831 14.386C20.8611 13.432 18.7531 12.5562 16.8084 12.0939C15.4501 11.771 14.5825 10.2751 14.8706 8.75277ZM19.4232 18.0799C19.4232 18.0799 19.4282 18.0839 19.4365 18.0918C19.427 18.0839 19.4232 18.0799 19.4232 18.0799Z" fill="black" fill-opacity="0.2"></path>
</g>
<path d="M5.05957 82.5854H30.94V90.0189C30.94 90.5712 30.4923 91.0189 29.94 91.0189H6.05957C5.50729 91.0189 5.05957 90.5712 5.05957 90.0189V82.5854Z" fill="white"></path>
<path d="M5.05957 82.5854H30.94V90.0189C30.94 90.5712 30.4923 91.0189 29.94 91.0189H6.05957C5.50729 91.0189 5.05957 90.5712 5.05957 90.0189V82.5854Z" fill="url(#paint0_linear_46_124512)"></path>
<path d="M5.05957 82.5854H30.94V90.0189C30.94 90.5712 30.4923 91.0189 29.94 91.0189H6.05957C5.50729 91.0189 5.05957 90.5712 5.05957 90.0189V82.5854Z" fill="url(#paint1_linear_46_124512)" fill-opacity="0.6"></path>
<path d="M5.05957 82.5854H30.94V90.0189C30.94 90.5712 30.4923 91.0189 29.94 91.0189H6.05957C5.50729 91.0189 5.05957 90.5712 5.05957 90.0189V82.5854Z" fill="url(#paint2_radial_46_124512)" fill-opacity="0.2"></path>
<path d="M5.05957 82.5854H30.94V90.0189C30.94 90.5712 30.4923 91.0189 29.94 91.0189H6.05957C5.50729 91.0189 5.05957 90.5712 5.05957 90.0189V82.5854Z" fill="url(#paint3_linear_46_124512)" fill-opacity="0.2"></path>
<path d="M5.05957 82.5854H30.94V90.0189C30.94 90.5712 30.4923 91.0189 29.94 91.0189H6.05957C5.50729 91.0189 5.05957 90.5712 5.05957 90.0189V82.5854Z" fill="url(#paint4_linear_46_124512)" fill-opacity="0.2"></path>
<path d="M7.87745 34.8882H28.1221L30.94 82.5859H5.05957L7.87745 34.8882Z" fill="white"></path>
<path d="M7.87745 34.8882H28.1221L30.94 82.5859H5.05957L7.87745 34.8882Z" fill="url(#paint5_linear_46_124512)" fill-opacity="0.8"></path>
<path d="M7.87745 34.8882H28.1221L30.94 82.5859H5.05957L7.87745 34.8882Z" fill="url(#paint6_linear_46_124512)" fill-opacity="0.8"></path>
<path d="M7.87745 34.8882H28.1221L30.94 82.5859H5.05957L7.87745 34.8882Z" fill="url(#paint7_radial_46_124512)" fill-opacity="0.2"></path>
<path d="M7.87695 34.8882H28.1216L22.6407 29.2949H13.3579L7.87695 34.8882Z" fill="white"></path>
<path d="M7.87695 34.8882H28.1216L22.6407 29.2949H13.3579L7.87695 34.8882Z" fill="url(#paint8_linear_46_124512)" fill-opacity="0.6"></path>
<path d="M7.87695 34.8882H28.1216L22.6407 29.2949H13.3579L7.87695 34.8882Z" fill="url(#paint9_linear_46_124512)"></path>
<path fill-rule="evenodd" clip-rule="evenodd" d="M13.9273 5.1494C12.6558 4.80562 11.4064 5.84085 11.1367 7.46165C10.867 9.08245 11.6791 10.675 12.9507 11.0188C14.7712 11.511 16.7446 12.4434 18.0757 13.4591C17.8052 13.4781 17.5101 13.4913 17.1821 13.5059L17.1815 13.5059C17.0333 13.5125 16.8784 13.5195 16.7161 13.5273C15.8914 13.5674 14.6793 13.6333 13.6592 14.1019C13.1082 14.355 12.4371 14.7995 11.9033 15.6208C11.3349 16.4953 11.0855 17.5451 11.0856 18.6049C11.0857 20.7766 12.2866 21.9752 12.9081 22.49C13.2506 22.7737 13.6141 23.0127 13.9018 23.1975C13.9954 23.2575 14.0819 23.3125 14.164 23.3647L14.1647 23.3652C14.3667 23.4935 14.542 23.6049 14.7297 23.7334C15.2479 24.0882 15.5255 24.3587 15.6824 24.6006C15.7864 24.7608 15.8941 24.9838 15.8941 25.506C15.8941 27.1628 16.9478 28.506 18.2477 28.506C19.5475 28.506 20.6012 27.1628 20.6012 25.506C20.6012 23.5804 20.1079 22.0072 19.3103 20.7774C18.9701 20.253 18.5924 19.8192 18.2172 19.4581C18.7432 19.4224 19.3011 19.3641 19.8174 19.2531C20.755 19.0515 22.2673 18.5487 23.1992 16.8194C23.641 15.9996 23.8895 15.032 23.8622 13.992C23.8358 12.9906 23.5601 12.1332 23.2327 11.4616C22.6107 10.1856 21.6187 9.2008 20.6963 8.46894C18.7942 6.95959 16.2051 5.7652 13.9273 5.1494ZM15.3984 17.3919C15.3987 17.3918 15.4032 17.3961 15.4109 17.4046C15.402 17.3961 15.3982 17.3919 15.3984 17.3919ZM15.2406 19.7538C15.2415 19.7533 15.2428 19.7526 15.2443 19.7517C15.2406 19.7536 15.2389 19.7546 15.239 19.7547C15.239 19.7547 15.2396 19.7544 15.2406 19.7538ZM7.39648 43.019H28.6019L28.1215 34.8882H7.87684L7.39648 43.019Z" fill="currentColor"></path>
<g filter="url(#filter2_i_46_124512)">
<path fill-rule="evenodd" clip-rule="evenodd" d="M11.1376 7.46165C11.4073 5.84085 12.6568 4.80562 13.9283 5.1494C16.2061 5.7652 18.7952 6.95959 20.6973 8.46894C21.6197 9.2008 22.6116 10.1856 23.2337 11.4616C23.5611 12.1332 23.8368 12.9906 23.8631 13.992C23.8905 15.032 23.642 15.9996 23.2002 16.8194C22.2683 18.5487 20.7559 19.0515 19.8184 19.2531C19.302 19.3641 18.7442 19.4224 18.2182 19.4581C18.5934 19.8192 18.9711 20.253 19.3112 20.7774C20.1089 22.0072 20.6022 23.5804 20.6022 25.506C20.6022 27.1628 19.5485 28.506 18.2487 28.506C16.9488 28.506 15.8951 27.1628 15.8951 25.506C15.8951 24.9838 15.7874 24.7608 15.6834 24.6006C15.5265 24.3587 15.2488 24.0881 14.7307 23.7334C14.543 23.6049 14.3677 23.4935 14.1657 23.3652C14.0834 23.3128 13.9966 23.2577 13.9028 23.1975C13.615 23.0127 13.2516 22.7737 12.9091 22.49C12.2876 21.9752 11.0866 20.7766 11.0866 18.6049C11.0865 17.5451 11.3359 16.4953 11.9043 15.6208C12.4381 14.7995 13.1092 14.355 13.6602 14.1019C14.6803 13.6333 15.8924 13.5674 16.7171 13.5273C16.8796 13.5194 17.0347 13.5125 17.1831 13.5059C17.5111 13.4913 17.8062 13.4781 18.0767 13.4591C16.7455 12.4434 14.7722 11.511 12.9517 11.0188C11.6801 10.675 10.8679 9.08245 11.1376 7.46165Z" fill="#D9D9D9" fill-opacity="0.01"></path>
</g>
<path fill-rule="evenodd" clip-rule="evenodd" d="M28.6028 43.019H7.39746L7.87781 34.8882H28.1225L28.6028 43.019Z" fill="url(#paint10_linear_46_124512)" fill-opacity="0.6"></path>
<path fill-rule="evenodd" clip-rule="evenodd" d="M28.6028 43.019H7.39746L7.87781 34.8882H28.1225L28.6028 43.019Z" fill="url(#paint11_linear_46_124512)"></path>
<path fill-rule="evenodd" clip-rule="evenodd" d="M28.6028 43.019H7.39746L7.87781 34.8882H28.1225L28.6028 43.019Z" fill="url(#paint12_linear_46_124512)" fill-opacity="0.2"></path>
<path fill-rule="evenodd" clip-rule="evenodd" d="M28.6028 43.019H7.39746L7.87781 34.8882H28.1225L28.6028 43.019Z" fill="url(#paint13_linear_46_124512)" fill-opacity="0.2"></path>
<path d="M13.3672 25.0308C13.3672 24.4785 13.8149 24.0308 14.3672 24.0308H21.6294C22.1817 24.0308 22.6294 24.4785 22.6294 25.0308V29.2961H13.3672V25.0308Z" fill="white"></path>
<path d="M13.3672 25.0308C13.3672 24.4785 13.8149 24.0308 14.3672 24.0308H21.6294C22.1817 24.0308 22.6294 24.4785 22.6294 25.0308V29.2961H13.3672V25.0308Z" fill="url(#paint14_linear_46_124512)" fill-opacity="0.9"></path>
<path d="M13.3672 25.0308C13.3672 24.4785 13.8149 24.0308 14.3672 24.0308H21.6294C22.1817 24.0308 22.6294 24.4785 22.6294 25.0308V29.2961H13.3672V25.0308Z" fill="url(#paint15_linear_46_124512)" fill-opacity="0.8"></path>
<path d="M13.3672 25.0308C13.3672 24.4785 13.8149 24.0308 14.3672 24.0308H21.6294C22.1817 24.0308 22.6294 24.4785 22.6294 25.0308V29.2961H13.3672V25.0308Z" fill="url(#paint16_radial_46_124512)" fill-opacity="0.2"></path>
<path d="M13.3672 25.0308C13.3672 24.4785 13.8149 24.0308 14.3672 24.0308H21.6294C22.1817 24.0308 22.6294 24.4785 22.6294 25.0308V29.2961H13.3672V25.0308Z" fill="url(#paint17_linear_46_124512)" fill-opacity="0.2"></path>
<path d="M13.3672 25.0308C13.3672 24.4785 13.8149 24.0308 14.3672 24.0308H21.6294C22.1817 24.0308 22.6294 24.4785 22.6294 25.0308V29.2961H13.3672V25.0308Z" fill="url(#paint18_linear_46_124512)" fill-opacity="0.2"></path>
<mask id="mask0_46_124512" style="mask-type:alpha" maskUnits="userSpaceOnUse" x="13" y="24" width="10" height="6">
<path d="M13.3672 25.0308C13.3672 24.4785 13.8149 24.0308 14.3672 24.0308H21.6294C22.1817 24.0308 22.6294 24.4785 22.6294 25.0308V29.2961H13.3672V25.0308Z" fill="#D9D9D9"></path>
</mask>
<g mask="url(#mask0_46_124512)">
<path fill-rule="evenodd" clip-rule="evenodd" d="M23.4978 24.0537C23.5272 24.2286 23.4193 24.3973 23.2482 24.444L12.9345 27.2611C12.7373 27.315 12.5368 27.1868 12.503 26.9853V26.9853C12.4736 26.8104 12.5814 26.6417 12.7525 26.5949L23.0663 23.7778C23.2634 23.724 23.4639 23.8522 23.4978 24.0537V24.0537Z" fill="url(#paint19_linear_46_124512)"></path>
<path fill-rule="evenodd" clip-rule="evenodd" d="M23.4978 26.0537C23.5272 26.2286 23.4193 26.3973 23.2482 26.444L12.9345 29.2611C12.7373 29.315 12.5368 29.1868 12.503 28.9853V28.9853C12.4736 28.8104 12.5814 28.6417 12.7525 28.5949L23.0663 25.7778C23.2634 25.724 23.4639 25.8522 23.4978 26.0537V26.0537Z" fill="url(#paint20_linear_46_124512)"></path>
<path fill-rule="evenodd" clip-rule="evenodd" d="M24.3396 27.3955C24.369 27.5704 24.2611 27.7391 24.09 27.7858L13.7763 30.6029C13.5791 30.6568 13.3786 30.5286 13.3448 30.3271V30.3271C13.3154 30.1522 13.4232 29.9835 13.5943 29.9367L23.9081 27.1196C24.1052 27.0658 24.3057 27.194 24.3396 27.3955V27.3955Z" fill="url(#paint21_linear_46_124512)"></path>
</g>
</g>
<defs>
<filter id="filter0_f_46_124512" x="6.55078" y="20.5308" width="28.3887" height="74.9878" filterUnits="userSpaceOnUse" color-interpolation-filters="sRGB">
<feFlood flood-opacity="0" result="BackgroundImageFix"></feFlood>
<feBlend mode="normal" in="SourceGraphic" in2="BackgroundImageFix" result="shape"></feBlend>
<feGaussianBlur stdDeviation="2" result="effect1_foregroundBlur_46_124512"></feGaussianBlur>
</filter>
<filter id="filter1_f_46_124512" x="11.293" y="4.51904" width="14.9834" height="26" filterUnits="userSpaceOnUse" color-interpolation-filters="sRGB">
<feFlood flood-opacity="0" result="BackgroundImageFix"></feFlood>
<feBlend mode="normal" in="SourceGraphic" in2="BackgroundImageFix" result="shape"></feBlend>
<feGaussianBlur stdDeviation="1" result="effect1_foregroundBlur_46_124512"></feGaussianBlur>
</filter>
<filter id="filter2_i_46_124512" x="10.0859" y="4.5835" width="13.7793" height="23.9224" filterUnits="userSpaceOnUse" color-interpolation-filters="sRGB">
<feFlood flood-opacity="0" result="BackgroundImageFix"></feFlood>
<feBlend mode="normal" in="SourceGraphic" in2="BackgroundImageFix" result="shape"></feBlend>
<feColorMatrix in="SourceAlpha" type="matrix" values="0 0 0 0 0 0 0 0 0 0 0 0 0 0 0 0 0 0 127 0" result="hardAlpha"></feColorMatrix>
<feOffset dx="-1" dy="-0.5"></feOffset>
<feGaussianBlur stdDeviation="1"></feGaussianBlur>
<feComposite in2="hardAlpha" operator="arithmetic" k2="-1" k3="1"></feComposite>
<feColorMatrix type="matrix" values="0 0 0 0 0 0 0 0 0 0 0 0 0 0 0 0 0 0 0.15 0"></feColorMatrix>
<feBlend mode="normal" in2="shape" result="effect1_innerShadow_46_124512"></feBlend>
</filter>
<linearGradient id="paint0_linear_46_124512" x1="4.15736" y1="88.1209" x2="35.0408" y2="87.3808" gradientUnits="userSpaceOnUse">
<stop offset="0.322926" stop-color="#F3F3F3" stop-opacity="0"></stop>
<stop offset="0.778204" stop-color="#545454"></stop>
<stop offset="1" stop-color="#B3B3B3"></stop>
</linearGradient>
<linearGradient id="paint1_linear_46_124512" x1="17.1215" y1="83.2956" x2="0.788503" y2="82.9753" gradientUnits="userSpaceOnUse">
<stop offset="0.133684" stop-color="#F3F3F3" stop-opacity="0"></stop>
<stop offset="0.319003" stop-color="#FCFCFC" stop-opacity="0.156616"></stop>
<stop offset="0.394319" stop-color="white" stop-opacity="0.220267"></stop>
<stop offset="0.778204" stop-color="#545454"></stop>
<stop offset="1" stop-color="#B3B3B3"></stop>
</linearGradient>
<radialGradient id="paint2_radial_46_124512" cx="0" cy="0" r="1" gradientUnits="userSpaceOnUse" gradientTransform="translate(18.8629 81.7158) rotate(73.9466) scale(5.29275 14.0295)">
<stop stop-color="white"></stop>
<stop offset="1" stop-color="white" stop-opacity="0"></stop>
</radialGradient>
<linearGradient id="paint3_linear_46_124512" x1="17.9998" y1="90.9577" x2="17.9998" y2="90.1204" gradientUnits="userSpaceOnUse">
<stop></stop>
<stop offset="1" stop-opacity="0"></stop>
</linearGradient>
<linearGradient id="paint4_linear_46_124512" x1="17.9998" y1="82.1668" x2="17.9998" y2="83.0041" gradientUnits="userSpaceOnUse">
<stop></stop>
<stop offset="1" stop-opacity="0"></stop>
</linearGradient>
<linearGradient id="paint5_linear_46_124512" x1="9.05907" y1="60.8365" x2="39.1035" y2="59.2838" gradientUnits="userSpaceOnUse">
<stop offset="0.322926" stop-color="#F3F3F3" stop-opacity="0"></stop>
<stop offset="0.590987" stop-color="#545454" stop-opacity="0.6"></stop>
<stop offset="0.745906" stop-color="#B3B3B3" stop-opacity="0.81"></stop>
</linearGradient>
<linearGradient id="paint6_linear_46_124512" x1="20.5269" y1="33.613" x2="0.136479" y2="32.3413" gradientUnits="userSpaceOnUse">
<stop offset="0.133684" stop-color="#F3F3F3" stop-opacity="0"></stop>
<stop offset="0.319003" stop-color="#FCFCFC" stop-opacity="0.156616"></stop>
<stop offset="0.394319" stop-color="white" stop-opacity="0.220267"></stop>
<stop offset="0.778204" stop-color="#545454"></stop>
<stop offset="1" stop-color="#B3B3B3"></stop>
</linearGradient>
<radialGradient id="paint7_radial_46_124512" cx="0" cy="0" r="1" gradientUnits="userSpaceOnUse" gradientTransform="translate(18.9324 29.9697) rotate(86.6351) scale(28.817 16.8416)">
<stop stop-color="white"></stop>
<stop offset="1" stop-color="white" stop-opacity="0"></stop>
</radialGradient>
<linearGradient id="paint8_linear_46_124512" x1="18.6797" y1="42.06" x2="0.910733" y2="27.6682" gradientUnits="userSpaceOnUse">
<stop offset="0.322926" stop-color="#F3F3F3" stop-opacity="0"></stop>
<stop offset="0.778204" stop-color="#545454"></stop>
<stop offset="1" stop-color="#B3B3B3"></stop>
</linearGradient>
<linearGradient id="paint9_linear_46_124512" x1="19.1182" y1="39.47" x2="28.2806" y2="31.2746" gradientUnits="userSpaceOnUse">
<stop stop-color="white" stop-opacity="0"></stop>
<stop offset="1" stop-opacity="0.38"></stop>
</linearGradient>
<linearGradient id="paint10_linear_46_124512" x1="33.3718" y1="38.9246" x2="2.71115" y2="38.9246" gradientUnits="userSpaceOnUse">
<stop stop-opacity="0.24"></stop>
<stop offset="0.246721" stop-opacity="0.31"></stop>
<stop offset="0.370532" stop-opacity="0.09"></stop>
<stop offset="0.52282" stop-opacity="0"></stop>
<stop offset="0.6875" stop-opacity="0"></stop>
<stop offset="1" stop-opacity="0.15"></stop>
</linearGradient>
<linearGradient id="paint11_linear_46_124512" x1="28.7727" y1="38.9246" x2="6.54374" y2="38.9246" gradientUnits="userSpaceOnUse">
<stop offset="0.422755" stop-color="white" stop-opacity="0"></stop>
<stop offset="0.702166" stop-color="white" stop-opacity="0.29"></stop>
<stop offset="1" stop-color="white" stop-opacity="0"></stop>
</linearGradient>
<linearGradient id="paint12_linear_46_124512" x1="18.0002" y1="34.8882" x2="18.0002" y2="35.236" gradientUnits="userSpaceOnUse">
<stop stop-opacity="0.4"></stop>
<stop offset="1" stop-opacity="0"></stop>
</linearGradient>
<linearGradient id="paint13_linear_46_124512" x1="17.9447" y1="43.3668" x2="17.9447" y2="42.5537" gradientUnits="userSpaceOnUse">
<stop offset="0.110896" stop-opacity="0.4"></stop>
<stop offset="1" stop-opacity="0"></stop>
</linearGradient>
<linearGradient id="paint14_linear_46_124512" x1="14.0775" y1="26.519" x2="25.2837" y2="24.876" gradientUnits="userSpaceOnUse">
<stop offset="0.322926" stop-color="#F3F3F3" stop-opacity="0"></stop>
<stop offset="0.668996" stop-color="#545454" stop-opacity="0.6"></stop>
<stop offset="0.887206" stop-color="#B3B3B3"></stop>
</linearGradient>
<linearGradient id="paint15_linear_46_124512" x1="18.9027" y1="23.89" x2="11.8646" y2="22.467" gradientUnits="userSpaceOnUse">
<stop offset="0.133684" stop-color="#F3F3F3" stop-opacity="0"></stop>
<stop offset="0.319003" stop-color="#FCFCFC" stop-opacity="0.156616"></stop>
<stop offset="0.394319" stop-color="white" stop-opacity="0.220267"></stop>
<stop offset="0.778204" stop-color="#545454"></stop>
<stop offset="1" stop-color="#B3B3B3"></stop>
</linearGradient>
<radialGradient id="paint16_radial_46_124512" cx="0" cy="0" r="1" gradientUnits="userSpaceOnUse" gradientTransform="translate(18.3321 23.4878) rotate(79.2079) scale(3.23279 5.931)">
<stop stop-color="white"></stop>
<stop offset="1" stop-color="white" stop-opacity="0"></stop>
</radialGradient>
<linearGradient id="paint17_linear_46_124512" x1="18.0001" y1="23.519" x2="17.9972" y2="29.2961" gradientUnits="userSpaceOnUse">
<stop offset="0.082443"></stop>
<stop offset="0.132072" stop-opacity="0"></stop>
</linearGradient>
<linearGradient id="paint18_linear_46_124512" x1="18.0001" y1="30.519" x2="18.0001" y2="26.519" gradientUnits="userSpaceOnUse">
<stop offset="0.269436"></stop>
<stop offset="0.364797" stop-opacity="0"></stop>
</linearGradient>
<linearGradient id="paint19_linear_46_124512" x1="18.2416" y1="23.6027" x2="19.0958" y2="26.4249" gradientUnits="userSpaceOnUse">
<stop offset="0.467098" stop-color="#808080"></stop>
<stop offset="0.577624" stop-color="#C0C0C0"></stop>
<stop offset="0.655404" stop-color="#424242" stop-opacity="0.65"></stop>
<stop offset="0.702462" stop-color="#666666"></stop>
</linearGradient>
<linearGradient id="paint20_linear_46_124512" x1="18.2416" y1="25.6027" x2="19.0958" y2="28.4249" gradientUnits="userSpaceOnUse">
<stop offset="0.467098" stop-color="#808080"></stop>
<stop offset="0.577624" stop-color="#C0C0C0"></stop>
<stop offset="0.655404" stop-color="#424242" stop-opacity="0.65"></stop>
<stop offset="0.702462" stop-color="#666666"></stop>
</linearGradient>
<linearGradient id="paint21_linear_46_124512" x1="19.0834" y1="26.9445" x2="19.9376" y2="29.7667" gradientUnits="userSpaceOnUse">
<stop offset="0.467098" stop-color="#808080"></stop>
<stop offset="0.577624" stop-color="#C0C0C0"></stop>
<stop offset="0.655404" stop-color="#424242" stop-opacity="0.65"></stop>
<stop offset="0.702462" stop-color="#666666"></stop>
</linearGradient>
<clipPath id="clip0_46_124512">
<rect width="36" height="88" fill="white" transform="translate(0 0.5)"></rect>
</clipPath>
</defs>
</svg>