
<svg width="36" height="89" viewBox="0 0 36 89" fill="none" xmlns="http://www.w3.org/2000/svg" class="pen-pc--item-icon pen-pc--item-hover" style="color: rgb(245, 220, 78);">
<g clip-path="url(#clip0_46_124635)">
<g filter="url(#filter0_f_46_124635)">
<path d="M18.6924 91.9077L18.6924 5.90771L29.0775 44.4077C29.0775 44.4077 29.0775 79.7098 29.0775 89.4077L18.6924 91.9077Z" fill="black" fill-opacity="0.2"></path>
</g>
<path d="M16.9603 6.54188C17.2441 5.47612 18.7565 5.47612 19.0403 6.54187L29.1774 44.6102L6.82324 44.6102L16.9603 6.54188Z" fill="#F2DEC5"></path>
<mask id="mask0_46_124635" style="mask-type:alpha" maskUnits="userSpaceOnUse" x="6" y="4" width="24" height="41">
<path d="M17.2489 5.45823C17.5019 4.50806 18.4987 4.50806 18.7517 5.45823L29.1774 44.6104L6.82324 44.6104L17.2489 5.45823Z" fill="#F2DEC5"></path>
</mask>
<g mask="url(#mask0_46_124635)">
<path d="M16.9603 6.54188C17.2441 5.47612 18.7565 5.47612 19.0403 6.54187L29.1774 44.6102L6.82324 44.6102L16.9603 6.54188Z" fill="url(#paint0_linear_46_124635)"></path>
<g opacity="0.6" filter="url(#filter1_f_46_124635)">
<path d="M18.934 15.027C18.8351 13.7146 20.7275 13.406 21.0506 14.6819L28.7053 44.9077H21.1865L18.934 15.027Z" fill="#EAC89F"></path>
</g>
</g>
<path d="M14.5599 15.5518L21.4383 15.5518L18.7505 5.45823C18.4975 4.50806 17.5007 4.50806 17.2477 5.45823L14.5599 15.5518Z" fill="currentColor"></path>
<path d="M29.1762 44.6102L29.1762 107.033L14.0123 107.033V106.992L14.0085 107.034L6.82324 107.034L6.82324 44.6107C6.82324 42.4581 8.81915 39.2294 10.4159 39.2294C12.0126 39.2294 14.0085 42.4581 14.0085 44.6107L14.0123 44.6524V44.6104C14.0123 41.6384 15.8077 39.2291 18.0041 39.2291C20.162 39.2291 21.933 41.5549 21.9943 44.4551C22.0855 42.3062 24.0247 39.2289 25.5835 39.2289C27.1803 39.2289 29.1762 42.4577 29.1762 44.6102Z" fill="currentColor"></path>
<mask id="mask1_46_124635" style="mask-type:alpha" maskUnits="userSpaceOnUse" x="14" y="4" width="8" height="12">
<path d="M14.5615 15.5538L21.4399 15.5538L18.7521 5.46019C18.4991 4.51002 17.5023 4.51001 17.2493 5.46018L14.5615 15.5538Z" fill="#191919"></path>
</mask>
<g mask="url(#mask1_46_124635)">
<g opacity="0.3">
<path d="M14.5615 15.5538L21.4399 15.5538L18.7521 5.46019C18.4991 4.51002 17.5023 4.51001 17.2493 5.46018L14.5615 15.5538Z" fill="url(#paint1_linear_46_124635)"></path>
<path d="M14.5615 15.5538L21.4399 15.5538L18.7521 5.46019C18.4991 4.51002 17.5023 4.51001 17.2493 5.46018L14.5615 15.5538Z" fill="url(#paint2_linear_46_124635)" fill-opacity="0.2"></path>
</g>
<g opacity="0.4" filter="url(#filter2_f_46_124635)">
<path d="M15.3535 17.9077L17.5789 5.40771L16.8371 17.4077L15.3535 17.9077Z" fill="url(#paint3_linear_46_124635)"></path>
</g>
</g>
<mask id="mask2_46_124635" style="mask-type:alpha" maskUnits="userSpaceOnUse" x="6" y="39" width="24" height="69">
<path d="M29.1762 44.6093L29.1762 107.032L14.0123 107.032V106.991L14.0085 107.033L6.82324 107.033L6.82324 44.6098C6.82324 42.4573 8.81915 39.2285 10.4159 39.2285C12.0126 39.2285 14.0085 42.4573 14.0085 44.6098L14.0123 44.6516V44.6096C14.0123 41.6376 15.8077 39.2283 18.0041 39.2283C20.162 39.2283 21.933 41.5541 21.9943 44.4542C22.0855 42.3053 24.0247 39.228 25.5835 39.228C27.1803 39.228 29.1762 42.4568 29.1762 44.6093Z" fill="black"></path>
</mask>
<g mask="url(#mask2_46_124635)">
<g filter="url(#filter3_f_46_124635)">
<path d="M14.0547 44.039C14.0547 41.0077 15.8689 38.5503 18.0882 38.5503C20.3075 38.5503 22.1217 41.0077 22.1217 44.039L22.1217 107.708H14.0547L14.0547 44.039Z" fill="url(#paint4_linear_46_124635)"></path>
</g>
<g filter="url(#filter4_f_46_124635)">
<path d="M14.5614 39.269V107.033H6.82324V39.269C6.82324 37.9466 7.51166 36.25 8.42099 35.0263C9.11845 34.0877 9.94588 33.4272 10.6923 33.4272C12.4119 33.4272 14.5614 36.9323 14.5614 39.269Z" fill="url(#paint5_linear_46_124635)" fill-opacity="0.2"></path>
</g>
<g filter="url(#filter5_f_46_124635)">
<path d="M29.1765 44.6093L29.1765 107.032H21.9912L21.9912 44.6093C21.9912 42.4568 23.9871 39.228 25.5838 39.228C27.1806 39.228 29.1765 42.4568 29.1765 44.6093Z" fill="url(#paint6_linear_46_124635)" fill-opacity="0.12"></path>
</g>
</g>
</g>
<defs>
<filter id="filter0_f_46_124635" x="14.6924" y="1.90771" width="18.3848" height="94" filterUnits="userSpaceOnUse" color-interpolation-filters="sRGB">
<feFlood flood-opacity="0" result="BackgroundImageFix"></feFlood>
<feBlend mode="normal" in="SourceGraphic" in2="BackgroundImageFix" result="shape"></feBlend>
<feGaussianBlur stdDeviation="2" result="effect1_foregroundBlur_46_124635"></feGaussianBlur>
</filter>
<filter id="filter1_f_46_124635" x="14.9307" y="9.86865" width="17.7744" height="39.0391" filterUnits="userSpaceOnUse" color-interpolation-filters="sRGB">
<feFlood flood-opacity="0" result="BackgroundImageFix"></feFlood>
<feBlend mode="normal" in="SourceGraphic" in2="BackgroundImageFix" result="shape"></feBlend>
<feGaussianBlur stdDeviation="2" result="effect1_foregroundBlur_46_124635"></feGaussianBlur>
</filter>
<filter id="filter2_f_46_124635" x="14.3535" y="4.40771" width="4.22559" height="14.5" filterUnits="userSpaceOnUse" color-interpolation-filters="sRGB">
<feFlood flood-opacity="0" result="BackgroundImageFix"></feFlood>
<feBlend mode="normal" in="SourceGraphic" in2="BackgroundImageFix" result="shape"></feBlend>
<feGaussianBlur stdDeviation="0.5" result="effect1_foregroundBlur_46_124635"></feGaussianBlur>
</filter>
<filter id="filter3_f_46_124635" x="13.0547" y="37.5503" width="10.0674" height="71.1582" filterUnits="userSpaceOnUse" color-interpolation-filters="sRGB">
<feFlood flood-opacity="0" result="BackgroundImageFix"></feFlood>
<feBlend mode="normal" in="SourceGraphic" in2="BackgroundImageFix" result="shape"></feBlend>
<feGaussianBlur stdDeviation="0.5" result="effect1_foregroundBlur_46_124635"></feGaussianBlur>
</filter>
<filter id="filter4_f_46_124635" x="2.82324" y="29.4272" width="15.7383" height="81.606" filterUnits="userSpaceOnUse" color-interpolation-filters="sRGB">
<feFlood flood-opacity="0" result="BackgroundImageFix"></feFlood>
<feBlend mode="normal" in="SourceGraphic" in2="BackgroundImageFix" result="shape"></feBlend>
<feGaussianBlur stdDeviation="2" result="effect1_foregroundBlur_46_124635"></feGaussianBlur>
</filter>
<filter id="filter5_f_46_124635" x="20.9912" y="38.228" width="9.18555" height="69.8042" filterUnits="userSpaceOnUse" color-interpolation-filters="sRGB">
<feFlood flood-opacity="0" result="BackgroundImageFix"></feFlood>
<feBlend mode="normal" in="SourceGraphic" in2="BackgroundImageFix" result="shape"></feBlend>
<feGaussianBlur stdDeviation="0.5" result="effect1_foregroundBlur_46_124635"></feGaussianBlur>
</filter>
<linearGradient id="paint0_linear_46_124635" x1="21.6591" y1="24.9077" x2="9.70773" y2="23.7995" gradientUnits="userSpaceOnUse">
<stop stop-color="#EACEAC" stop-opacity="0"></stop>
<stop offset="0.528475" stop-color="#F5F1EB" stop-opacity="0.58"></stop>
<stop offset="1" stop-color="#F2DEC5" stop-opacity="0"></stop>
</linearGradient>
<linearGradient id="paint1_linear_46_124635" x1="18.0007" y1="4.74756" x2="18.0007" y2="15.5538" gradientUnits="userSpaceOnUse">
<stop stop-color="white"></stop>
<stop offset="1" stop-color="white" stop-opacity="0"></stop>
</linearGradient>
<linearGradient id="paint2_linear_46_124635" x1="20.6571" y1="12.7441" x2="14.9177" y2="12.7441" gradientUnits="userSpaceOnUse">
<stop stop-color="white" stop-opacity="0"></stop>
<stop offset="0.457143" stop-color="white"></stop>
<stop offset="1" stop-color="white" stop-opacity="0"></stop>
</linearGradient>
<linearGradient id="paint3_linear_46_124635" x1="14.6117" y1="17.9077" x2="23.3353" y2="-1.50559" gradientUnits="userSpaceOnUse">
<stop stop-color="white"></stop>
<stop offset="1" stop-color="white" stop-opacity="0"></stop>
</linearGradient>
<linearGradient id="paint4_linear_46_124635" x1="18.0882" y1="38.5503" x2="18.0882" y2="107.708" gradientUnits="userSpaceOnUse">
<stop stop-color="white" stop-opacity="0.34"></stop>
<stop offset="0.805727" stop-color="white" stop-opacity="0"></stop>
</linearGradient>
<linearGradient id="paint5_linear_46_124635" x1="14.0131" y1="36.3349" x2="7.9021" y2="106.791" gradientUnits="userSpaceOnUse">
<stop stop-color="white"></stop>
<stop offset="0.760916" stop-color="white" stop-opacity="0"></stop>
</linearGradient>
<linearGradient id="paint6_linear_46_124635" x1="33.1572" y1="50.407" x2="22.4072" y2="48.1286" gradientUnits="userSpaceOnUse">
<stop stop-color="white" stop-opacity="0"></stop>
<stop offset="1" stop-color="white"></stop>
</linearGradient>
<clipPath id="clip0_46_124635">
<rect width="36" height="88" fill="white" transform="translate(0 0.5)"></rect>
</clipPath>
</defs>
</svg>