<svg xmlns="http://www.w3.org/2000/svg" width="20" height="20" viewBox="0 0 20 20"><path fill="currentColor" d="M12.181 13.449l4.324-4.352-5.042-5.074L7.14 8.375l5.042 5.074zm-.005-10.166l.037.037.135.136 4.762 4.8.112.113c.388.39.352 1.09 0 1.444l-.02.02-.198.2-.125.125-.235.237-5.547 5.576 5.552-.01c.448 0 .851.094.851.544 0 .45-.403.485-.85.485H8.584c-1.04 0-1.425.138-2.152-.622l-3.629-3.652c-.466-.479-.345-1.08.016-1.45l6.828-6.872.221-.223.197-.198.25-.252.249-.25.123-.124.052-.052c.476-.48 1.157-.293 1.436-.012zm-5.75 5.785l-2.887 2.934 3.742 3.77c.15.15.352.174.564.173h1.36c.318 0 1.197-.845 1.736-1.383l.221-.222.154-.153.102-.096-4.993-5.023z"></path></svg>