<svg xmlns="http://www.w3.org/2000/svg" 
 fill="none" viewBox="2 2 20 20"><path 
 fill="currentColor"
  fill-rule="evenodd" 
  d="M3.2 5.6a2.4 2.4 0 012.4-2.4h12.8a2.4 2.4 0 012.4 2.4v12.8a2.4 2.4 0 01-2.4 2.4H5.6a2.4 2.4 0 01-2.4-2.4V5.6zm2.4-.8a.8.8 0 00-.8.8v2.933h3.733V4.8H5.6zm4.534 0v3.733H19.2V5.6a.8.8 0 00-.8-.8h-8.266zm9.066 5.333h-9.066v3.733H19.2v-3.733zm0 5.333h-9.066V19.2H18.4a.8.8 0 00.8-.8v-2.934zM8.533 19.2v-3.734H4.8V18.4a.8.8 0 00.8.8h2.933zM4.8 13.866h3.733v-3.733H4.8v3.733z" 
  clip-rule="evenodd"></path></svg>