<svg viewBox="0 0 30 30" 
class="compass" 
><path d="M18,4.361V3c0-1.657-1.343-3-3-3s-3,1.343-3,3v1.361C6.27,5.718,2,10.854,2,17c0,7.18,5.82,13,13,13s13-5.82,13-13 C28,10.854,23.73,5.718,18,4.361z M14,3c0-0.552,0.448-1,1-1s1,0.448,1,1v1.051C15.669,4.025,15.338,4,15,4s-0.669,0.025-1,0.051V3z M16,27.949V26h-2v1.949C8.724,27.474,4.526,23.276,4.051,18H6v-2H4.051C4.526,10.724,8.724,6.526,14,6.051V8h2V6.051 c5.276,0.476,9.474,4.673,9.949,9.949H24v2h1.949C25.474,23.276,21.276,27.474,16,27.949z M8,24l10-4l4-10l-10,4L8,24z M18.41,13.59 l-1.949,4.871L11.59,20.41l1.949-4.871L18.41,13.59z"></path></svg>