<svg viewBox="0 0 16 16" class="customizePage"><path d="M2 13.517c0 1.428.704 2.14 2.12 2.14h7.259c1.415 0 2.119-.712 2.119-2.14V3.147c0-1.422-.704-2.147-2.12-2.147H4.12C2.704 1 2 1.725 2 3.146v10.37zm1.1-.02V3.166c0-.684.363-1.066 1.074-1.066h7.15c.711 0 1.074.382 1.074 1.066v10.33c0 .683-.363 1.059-1.074 1.059h-7.15c-.711 0-1.073-.376-1.073-1.06zm2.065-8.532h5.182a.419.419 0 00.424-.43.406.406 0 00-.424-.411H5.165c-.246 0-.43.178-.43.41 0 .24.184.43.43.43zm0 2.386h5.182a.419.419 0 00.424-.431.406.406 0 00-.424-.41H5.165c-.246 0-.43.178-.43.41 0 .24.184.43.43.43zm0 2.385h2.454c.24 0 .424-.184.424-.417a.417.417 0 00-.424-.423H5.165a.419.419 0 00-.43.423c0 .233.184.417.43.417z"></path></svg>