<svg xmlns="http://www.w3.org/2000/svg" width="20" height="20" fill="none" viewBox="0 0 24 24"><path fill="transparent" fill-rule="evenodd" d="M4.8 4.8v14.4h14.4V4.8H4.8zm-1.6-.3a1.3 1.3 0 011.3-1.3h15a1.3 1.3 0 011.3 1.3v15a1.3 1.3 0 01-1.3 1.3h-15a1.3 1.3 0 01-1.3-1.3v-15z" clip-rule="evenodd"></path><path fill="currentColor" d="M4.5 8.2a1.3 1.3 0 00-1.3 1.3v5a1.3 1.3 0 001.3 1.3h10v-1.6H4.8V9.8h14.4V11h1.6V9.5a1.3 1.3 0 00-1.3-1.3h-15z"></path><path fill="currentColor" d="M17.066 12.434a.8.8 0 00-1.131 1.132l1.184 1.184-1.184 1.184a.8.8 0 001.13 1.132l1.185-1.184 1.184 1.184a.8.8 0 001.132-1.131l-1.184-1.185 1.184-1.184a.8.8 0 00-1.131-1.132L18.25 13.62l-1.184-1.184z"></path></svg>