<svg xmlns="http://www.w3.org/2000/svg" width="20" height="20" fill="none" viewBox="0 0 24 24"><path fill="transparent" fill-rule="evenodd" d="M4.8 4.8h14.4v14.4H4.8V4.8zm-.3-1.6a1.3 1.3 0 00-1.3 1.3v15a1.3 1.3 0 001.3 1.3h15a1.3 1.3 0 001.3-1.3v-15a1.3 1.3 0 00-1.3-1.3h-15z" clip-rule="evenodd"></path><path fill="currentColor" d="M8.2 4.5a1.3 1.3 0 011.3-1.3h5a1.3 1.3 0 011.3 1.3v10h-1.6V4.8H9.8v14.4H11v1.6H9.5a1.3 1.3 0 01-1.3-1.3v-15z"></path><path fill="currentColor" d="M12.434 17.066a.8.8 0 011.132-1.131l1.184 1.184 1.184-1.184a.8.8 0 011.132 1.13l-1.184 1.185 1.184 1.184a.8.8 0 01-1.131 1.132l-1.185-1.184-1.184 1.184a.8.8 0 01-1.132-1.131l1.185-1.185-1.184-1.184z"></path></svg>