<svg 
viewBox="0 0 24 24" 

  xmlns="http://www.w3.org/2000/svg"><path 
  fill-rule="evenodd" clip-rule="evenodd"
   d="M19.313 7.515a1.8 1.8 0 01.1 2.437l-.1.108-8.93 8.931a1.8 1.8 0 01-.976.503l-.16.02-4.227.324a.8.8 0 01-.86-.747l.001-.112.325-4.227a1.8 1.8 0 01.414-1.016l.108-.119 8.931-8.93a1.8 1.8 0 012.437-.1l.109.1 2.828 2.828zm-4.525 4.807L11.675 9.21 6.14 14.75a.2.2 0 00-.05.08l-.008.046-.254 3.296 3.297-.253.046-.01.043-.019.037-.03 5.537-5.537zm3.394-3.676l-2.829-2.828a.2.2 0 00-.24-.033l-.043.033-2.262 2.261 3.11 3.111 2.264-2.261a.2.2 0 00.032-.24l-.032-.043z" 
   ></path></svg>