<svg viewBox="0 0 14 14"><path
 d="M9.45002,6.2999567 C8.87013,6.2999567 8.40002,5.8298565 8.40002,5.24995625 C8.40002,4.670056 8.87013,4.1999558 9.45002,4.1999558 C10.0299,4.1999558 10.5,4.670056 10.5,5.24995625 C10.5,5.8298565 10.0299,6.2999567 9.45002,6.2999567 Z M4.55,6.2999567 C3.9701,6.2999567 3.5,5.8298565 3.5,5.24995625 C3.5,4.670056 3.9701,4.1999558 4.55,4.1999558 C5.1299,4.1999558 5.6,4.670056 5.6,5.24995625 C5.6,5.8298565 5.1299,6.2999567 4.55,6.2999567 Z M6.993,0 C10.864,0 14,3.13600534 14,7.000007 C14,10.8639987 10.864,14 6.993,14 C3.129,14 0,10.8639987 0,7.000007 C0,3.13600534 3.129,0 6.993,0 Z M7,12.5999994 C10.094,12.5999994 12.6,10.0939983 12.6,7.000007 C12.6,3.90600567 10.094,1.4000046 7,1.4000046 C3.906,1.4000046 1.4,3.90600567 1.4,7.000007 C1.4,10.0939983 3.906,12.5999994 7,12.5999994 Z M7,10.8499986 C5.369,10.8499986 3.976,9.83499821 3.416,8.4000076 L4.585,8.4000076 C5.075,9.23299796 5.964,9.7999982 7,9.7999982 C8.036,9.7999982 8.932,9.23299796 9.415,8.4000076 L10.584,8.4000076 C10.024,9.83499821 8.631,10.8499986 7,10.8499986 Z">
 </path>
 </svg>