<svg  viewBox="0 0 30 30"><path d="M14.538 23.62c4.904 0 8.965-4.061 8.965-8.966 0-4.895-4.07-8.965-8.974-8.965-4.895 0-8.956 4.07-8.956 8.965 0 4.905 4.07 8.965 8.965 8.965zm0-1.495a7.435 7.435 0 01-7.462-7.47c0-4.14 3.305-7.471 7.453-7.471a7.46 7.46 0 017.48 7.47 7.437 7.437 0 01-7.47 7.471zm-2.549-8.27c.519 0 .95-.458.95-1.1 0-.64-.431-1.098-.95-1.098-.518 0-.94.457-.94 1.099 0 .641.422 1.098.94 1.098zm5.133 0c.519 0 .95-.458.95-1.1 0-.64-.431-1.098-.95-1.098-.51 0-.94.457-.94 1.099 0 .641.43 1.098.94 1.098zm-2.584 5.036c2.127 0 3.445-1.503 3.445-2.075 0-.114-.087-.167-.175-.096-.633.536-1.723 1.063-3.27 1.063s-2.663-.562-3.27-1.054c-.096-.08-.175-.027-.175.087 0 .572 1.318 2.075 3.445 2.075z"  fill-rule="nonzero"></path></svg>