<svg viewBox="0 0 30 20" ><path d="M20.9297 18.416C21.2227 18.7188 21.6914 18.7383 21.9941 18.416C22.3066 18.0938 22.2871 17.6543 21.9941 17.3516L5.66602 1.0332C5.37305 0.740234 4.88477 0.740234 4.5918 1.0332C4.30859 1.31641 4.30859 1.81445 4.5918 2.09766L20.9297 18.416ZM21.8574 15.5938C24.709 13.709 26.5742 11.1211 26.5742 9.95898C26.5742 7.97656 21.1543 1.6582 13.3418 1.6582C11.6816 1.6582 10.1191 1.94141 8.70312 2.41016L11.2422 4.94922C11.8867 4.67578 12.5898 4.51953 13.3418 4.51953C16.3594 4.51953 18.8008 6.91211 18.8008 9.95898C18.8008 10.7012 18.6348 11.4141 18.3418 12.0391L21.8574 15.5938ZM13.3418 18.2598C15.1484 18.2598 16.8281 17.9277 18.3027 17.3809L15.7441 14.8223C15.0215 15.1934 14.2012 15.3984 13.3418 15.3984C10.2949 15.3984 7.88281 12.9277 7.87305 9.95898C7.87305 9.08008 8.07812 8.25 8.43945 7.51758L5.09961 4.1582C2.02344 6.08203 0.0996094 8.78711 0.0996094 9.95898C0.0996094 11.9316 5.61719 18.2598 13.3418 18.2598ZM16.4473 9.75391C16.4473 8.04492 15.0703 6.6582 13.3418 6.6582C13.2148 6.6582 13.0879 6.66797 12.9707 6.67773L16.4277 10.1348C16.4375 10.0176 16.4473 9.88086 16.4473 9.75391ZM10.2266 9.73438C10.2266 11.4531 11.6426 12.8398 13.3516 12.8398C13.4883 12.8398 13.6152 12.8301 13.752 12.8203L10.2461 9.31445C10.2363 9.45117 10.2266 9.59766 10.2266 9.73438Z"></path></svg>