<svg xmlns="http://www.w3.org/2000/svg" 

 fill="currentColor"
  viewBox="1 1 22 22"><path fill-rule="evenodd" d="M12.157 2.2a2.8 2.8 0 0 1 1.856.703l.148.142 4.843 4.965a2.8 2.8 0 0 1 .789 1.756l.007.199V19a2.8 2.8 0 0 1-2.63 2.795L17 21.8H7a2.8 2.8 0 0 1-2.795-2.63L4.2 19V5a2.8 2.8 0 0 1 2.63-2.795L7 2.2zM11.2 3.8H7a1.2 1.2 0 0 0-1.194 1.077L5.8 5v14a1.2 1.2 0 0 0 1.077 1.194L7 20.2h10a1.2 1.2 0 0 0 1.194-1.077L18.2 19v-8.2H13a1.8 1.8 0 0 1-1.794-1.652L11.2 9zm1.816.362a1.2 1.2 0 0 0-.215-.175L12.8 9a.2.2 0 0 0 .147.193L13 9.2h4.923l-.064-.073z"></path></svg>