<svg  viewBox="0 0 30 30"><path d="M9.053 5.37c-1.488 0-2.683 1.247-2.683 2.773l.007.2c.046.667.322 1.284.768 1.75l.045.044.001 12.631c0 1.029.834 1.862 1.862 1.862l.145-.006a1.862 1.862 0 001.716-1.856l.001-2.247.26-.121c1.179-.537 2.18-.801 2.998-.801.637 0 1.108.097 1.895.363l.573.199c.815.28 1.371.405 2.052.405 1.072 0 2.141-.315 3.2-.935.457-.267.737-.755.737-1.283V9.99a1.059 1.059 0 00-1.634-.889c-1.102.713-1.957 1.03-2.532.985l-.171-.02-.18-.03c-.2-.042-.31-.068-.57-.156l-.79-.279c-1.1-.394-1.826-.566-2.752-.566l-.27.006c-.635.03-1.32.163-2.057.399l-.308.102.044-.075c.21-.4.325-.852.325-1.324 0-1.526-1.195-2.773-2.682-2.773zm0 1.26c.78 0 1.422.671 1.422 1.513 0 .488-.218.935-.579 1.218l-.24.189-.001 2.112.898-.422c1.35-.634 2.502-.945 3.448-.945.673 0 1.23.116 2.045.393l1.04.368c.324.112.465.149.695.197l.08.017c.172.035.338.06.503.072l.185.008c.748.007 1.614-.29 2.618-.875l.203-.122v7.994c0 .081-.043.156-.112.196-.874.512-1.727.763-2.565.763-.448 0-.838-.075-1.393-.254l-.568-.194c-1.066-.374-1.682-.52-2.559-.52-1.18 0-2.567.415-4.172 1.23l-.345.174-.002 3.026a.602.602 0 11-1.203 0V9.551l-.241-.19a1.542 1.542 0 01-.58-1.218c0-.842.643-1.513 1.423-1.513z"  fill-rule="nonzero"></path></svg>