<svg xmlns="http://www.w3.org/2000/svg" fill="none" viewBox="2 2 16 16">
    <path fill="currentColor" fill-rule="evenodd"
        d="M11.25 1.725c.667 0 1.215.512 1.27 1.165l.005.11v.225h.225c1.075 0 1.955.838 2.021 1.897l.004.128v9a2.025 2.025 0 0 1-1.897 2.021l-.128.004h-7.5a2.025 2.025 0 0 1-2.021-1.897l-.004-.128v-9c0-1.075.838-1.955 1.897-2.021l.128-.004h.225V3c0-.667.512-1.215 1.165-1.27l.11-.005zm1.274 2.55.001.225c0 .667-.512 1.215-1.165 1.27l-.11.005h-4.5A1.275 1.275 0 0 1 5.48 4.61l-.005-.11v-.226l-.225.001a.975.975 0 0 0-.97.875l-.005.1v9c0 .505.384.92.875.97l.1.005h7.5c.505 0 .92-.384.97-.875l.005-.1v-9a.975.975 0 0 0-.875-.97l-.1-.005zm-2.024 7.95a.525.525 0 0 1 .071 1.045l-.071.005H6.375a.525.525 0 0 1-.071-1.045l.071-.005zm1.125-2.25a.525.525 0 0 1 .071 1.045l-.071.005h-5.25a.525.525 0 0 1-.071-1.045l.071-.005zm0-2.25a.525.525 0 0 1 .071 1.045l-.071.005h-5.25a.525.525 0 0 1-.071-1.045l.071-.005zm-.375-4.95h-4.5a.225.225 0 0 0-.219.173L6.525 3v1.5c0 .107.074.196.173.22l.052.005h4.5a.225.225 0 0 0 .22-.173l.005-.052V3a.225.225 0 0 0-.173-.219z"
        clip-rule="evenodd"></path>
</svg>