<svg xmlns="http://www.w3.org/2000/svg"  fill="none" viewBox="0 0 24 24"><path fill="currentColor" d="M13.75 2.878a3.459 3.459 0 00-4.211 2.766L9.089 8.2H6.75a.8.8 0 100 1.6h2.06l-1.48 8.428a2.02 2.02 0 01-.813 1.291 1.312 1.312 0 01-1.468.04l-.368-.234a.8.8 0 10-.86 1.35l.369.234a2.912 2.912 0 003.258-.089 3.616 3.616 0 001.457-2.315l1.53-8.705h2.816a.8.8 0 000-1.6h-2.536l.4-2.28a1.859 1.859 0 013.595-.265l.032.098a.8.8 0 101.518-.506l-.032-.098a3.459 3.459 0 00-2.478-2.27zm6.295 9.536a.8.8 0 01.041 1.13l-2.664 2.87 2.229 3.12a.8.8 0 01-1.302.93l-2.039-2.853-2.724 2.934a.8.8 0 01-1.172-1.09l2.947-3.173-2.012-2.817a.8.8 0 111.302-.93l1.821 2.55 2.442-2.63a.8.8 0 011.13-.041z"></path></svg>