<svg viewBox="0 0 32 32" class="imageError"><path d="M6.39515 31.0485c3.44161 0 6.29115-2.8495 6.29115-6.2911 0-3.4355-2.8557-6.2912-6.29732-6.2912-3.43544 0-6.28495 2.8557-6.28495 6.2912 0 3.4416 2.85568 6.2911 6.29112 6.2911zm-.00617-5.366c-.32689 0-.50575-.1912-.51809-.5181l-.08635-3.0468c-.01233-.3393.24671-.5798.59828-.5798.34539 0 .61677.2467.60444.5859l-.09252 3.0407c-.01233.3331-.1912.5181-.50576.5181zm0 2.2698c-.35773 0-.69078-.2838-.69078-.6662s.32689-.6661.69078-.6661c.3639 0 .69079.2776.69079.6661 0 .3886-.33305.6662-.69079.6662z"></path><path fill-rule="evenodd" clip-rule="evenodd" d="M4 17.5539V3h26v26H12.6862c.4113-.6095.7364-1.282.9578-2H28v-4H13.7749c-.1687-.7106-.4373-1.3825-.7902-2H28V5H6v12.1798c-.69548.0352-1.36626.164-2 .3741zM11.3329 19c-.6875-.5905-1.48192-1.0601-2.35027-1.3757L13 12l2 1 5-5 6 11H11.3329zM12 9c0 1.104-.896 2-2 2s-2-.896-2-2 .896-2 2-2 2 .896 2 2zm3.395 6.434l-1.76-.881L11.887 17h10.744l-3.107-5.695-4.129 4.129z"></path></svg>