<svg viewBox="0 0 30 30"><path d="M14.984 18.516l1.04-1.055c-1.032-.078-1.704-.39-2.212-.898-1.367-1.368-1.359-3.305-.007-4.657l2.547-2.547c1.367-1.359 3.289-1.367 4.656 0 1.367 1.368 1.351 3.297 0 4.649l-1.531 1.531c.218.5.265 1.078.187 1.586l2.297-2.29c1.867-1.874 1.883-4.523-.008-6.42-1.898-1.9-4.555-1.884-6.43-.009l-2.664 2.672c-1.875 1.875-1.89 4.531.008 6.422.492.492 1.117.844 2.117 1.016zm-.351 3.68l2.672-2.68c1.875-1.875 1.89-4.532-.008-6.422-.492-.492-1.117-.844-2.117-1.016l-1.04 1.055c1.032.086 1.704.39 2.212.898 1.367 1.367 1.359 3.305.007 4.656l-2.554 2.547c-1.36 1.36-3.282 1.368-4.649.008-1.367-1.375-1.36-3.297 0-4.656l1.531-1.531a2.85 2.85 0 01-.187-1.586l-2.297 2.289c-1.867 1.875-1.883 4.531.008 6.422 1.898 1.898 4.555 1.883 6.422.015z" fill="#312727" fill-rule="nonzero"></path></svg>