<svg viewBox="0 0 16 16" class="lockedThin"><path d="M4.531 14.405h6.262c1.025 0 1.531-.512 1.531-1.627v-4.71c0-.97-.39-1.483-1.182-1.592V4.82C11.142 2.244 9.453 1 7.662 1c-1.79 0-3.48 1.244-3.48 3.821v1.655C3.39 6.585 3 7.098 3 8.068v4.71c0 1.115.506 1.627 1.531 1.627zm.752-9.727c0-1.716 1.1-2.625 2.38-2.625 1.277 0 2.378.909 2.378 2.625v1.777H5.283V4.678zm-.71 8.702c-.315 0-.472-.144-.472-.527V8c0-.383.157-.52.471-.52h6.187c.314 0 .465.137.465.52v4.854c0 .382-.15.526-.465.526H4.572z"></path></svg>