<svg viewBox="0 0 14 14"

><path d="M6.78726 4.98561C7.77767 4.98561 8.39878 5.78297 8.39878 7.05875C8.39878 8.33453 7.76928 9.13189 6.77887 9.13189C5.82204 9.13189 5.23451 8.35132 5.23451 7.05875C5.23451 5.75779 5.81364 4.98561 6.78726 4.98561ZM7.07264 0C2.90117 0 0.0390625 2.85372 0.0390625 7.00839C0.0390625 11.247 2.85921 14 7.21532 14C8.16376 14 9.07863 13.8741 9.77527 13.6643V12.4053C9.28846 12.5983 8.28966 12.7326 7.29925 12.7326C3.72371 12.7326 1.44913 10.5252 1.44913 7.05036C1.44913 3.64269 3.7405 1.2506 6.9971 1.2506C10.2453 1.2506 12.4192 3.26499 12.4192 6.30336C12.4192 8.13309 11.8316 9.30815 10.9 9.30815C10.3544 9.30815 10.0439 8.96403 10.0439 8.36811V3.74341H8.50789V4.75899H8.35681C8.02947 4.01199 7.29086 3.56715 6.40117 3.56715C4.70573 3.56715 3.53906 4.97722 3.53906 7.01679C3.53906 9.14029 4.70573 10.5671 6.45153 10.5671C7.42515 10.5671 8.13858 10.1139 8.4911 9.25779H8.64218C8.79326 10.0719 9.55705 10.6091 10.581 10.6091C12.5786 10.6091 13.8292 8.91367 13.8292 6.21942C13.8292 2.53477 11.0762 0 7.07264 0Z"></path></svg>