<svg viewBox="0 0 17 15">
<path stroke='currentColor' d="M11.2871 4.48438C12.1309 4.48438 12.8574 3.95312 13.1621 3.21875H15.7324C16.123 3.21875 16.4512 2.875 16.4512 2.46094C16.4512 2.04688 16.123 1.71094 15.7324 1.71094H13.1621C12.8652 0.96875 12.1387 0.4375 11.2871 0.4375C10.4355 0.4375 9.70898 0.96875 9.41211 1.71094H1.04492C0.630859 1.71094 0.302734 2.04688 0.302734 2.46094C0.302734 2.875 0.630859 3.21875 1.04492 3.21875H9.41211C9.7168 3.95312 10.4434 4.48438 11.2871 4.48438ZM11.2871 3.42188C10.748 3.42188 10.3262 2.99219 10.3262 2.46094C10.3262 1.91406 10.748 1.49219 11.2871 1.49219C11.834 1.49219 12.248 1.91406 12.248 2.46094C12.248 2.99219 11.834 3.42188 11.2871 3.42188ZM1.02148 6.58594C0.630859 6.58594 0.302734 6.92188 0.302734 7.33594C0.302734 7.74219 0.630859 8.08594 1.02148 8.08594H3.67773C3.98242 8.83594 4.70898 9.35938 5.56055 9.35938C6.4043 9.35938 7.13086 8.83594 7.43555 8.08594H15.709C16.123 8.08594 16.4512 7.75 16.4512 7.33594C16.4512 6.92188 16.123 6.58594 15.709 6.58594H7.43555C7.13086 5.84375 6.4043 5.32031 5.56055 5.32031C4.70898 5.32031 3.98242 5.84375 3.67773 6.58594H1.02148ZM5.56055 8.30469C5.02148 8.30469 4.5918 7.875 4.5918 7.33594C4.5918 6.78906 5.02148 6.375 5.56055 6.375C6.09961 6.375 6.52148 6.78906 6.52148 7.33594C6.52148 7.875 6.09961 8.30469 5.56055 8.30469ZM11.2871 14.2344C12.1387 14.2344 12.8652 13.7031 13.1621 12.9609H15.7324C16.123 12.9609 16.4512 12.625 16.4512 12.2109C16.4512 11.7891 16.123 11.4609 15.7324 11.4609H13.1621C12.8652 10.7188 12.1387 10.1875 11.2871 10.1875C10.4434 10.1875 9.70898 10.7188 9.41211 11.4609H1.04492C0.630859 11.4609 0.302734 11.7969 0.302734 12.2109C0.302734 12.6172 0.630859 12.9609 1.04492 12.9609H9.41211C9.70898 13.7031 10.4355 14.2344 11.2871 14.2344ZM11.2871 13.1719C10.748 13.1719 10.3262 12.7422 10.3262 12.2109C10.3262 11.6641 10.748 11.25 11.2871 11.25C11.834 11.25 12.248 11.6641 12.248 12.2109C12.248 12.7422 11.834 13.1719 11.2871 13.1719Z">
</path>
</svg>