<svg viewBox="0 0 30 30" class="rename"><path d="M24,1c-1.141,0-2.55,0.45-3.55,1.45L6,16.9L5,25l8.1-1L27.55,9.551C28.604,8.495,29,7.063,29,6C29,3.238,26.762,1,24,1z M20.664,5.064L22.1,6.5L10.5,18.1l-1.436-1.436L20.664,5.064z M7.299,22.701l0.55-4.453l3.902,3.903L7.299,22.701z M13.336,20.936 L11.9,19.5L23.5,7.9l1.436,1.436L13.336,20.936z M26.311,7.91L22.09,3.689C22.705,3.198,23.478,3,24,3c1.654,0,3,1.346,3,3 C27,6.523,26.802,7.295,26.311,7.91z M25,27H3V5h12.072l2-2H1v26h26V12.928l-2,2V27z"></path></svg>