<svg 
 viewBox="0 0 1118 1024"
  version="1.1" xmlns="http://www.w3.org/2000/svg" 
><path d="M165.238899 508.178506C164.450369 456.442676 171.767779 404.485842 187.244542 353.863631 266.138632 95.812692 533.436225-51.353028 784.380224 25.368251 1035.324219 102.08953 1174.62994 373.566359 1095.735851 631.617298 1016.84176 889.66824 749.544168 1036.833959 498.600172 960.11268 424.134741 937.346313 357.837833 896.870788 303.973868 842.276436 291.310328 829.441176 291.396506 808.495802 304.166356 795.493625 316.936205 782.491452 337.554042 782.356136 350.217582 795.191397 396.640587 842.243889 453.73137 877.098901 517.975091 896.740177 734.436966 962.919213 965.320335 835.802028 1033.557737 612.607541 1101.795139 389.413057 981.467179 154.919792 765.005305 88.740755 548.543428 22.561718 317.660056 149.678904 249.422655 372.873388 235.597198 418.094418 229.294871 464.461039 230.4403 510.559881L311.240978 429.759202C323.584094 417.416085 343.892513 417.712357 356.601099 430.420946 369.309686 443.129535 369.605959 463.437952 357.262842 475.781068L230.778782 602.265128C229.273826 605.769679 227.098877 609.041396 224.251145 611.889128 211.908029 624.232245 191.59961 623.935974 178.891024 611.227385L40.825428 473.16179C28.11684 460.453206 27.820569 440.144784 40.163685 427.801668 52.506801 415.458551 72.815218 415.754827 85.523806 428.463411L165.238899 508.178506Z"></path></svg>