<svg viewBox="0 0 30 30" class="settings" 
><path d="M30,18v-6h-4.425c-0.235-0.831-0.561-1.622-0.974-2.36l3.126-3.126l-4.242-4.243l-3.127,3.126 C19.621,4.985,18.83,4.66,18,4.425V0h-6v4.425c-0.83,0.235-1.621,0.561-2.358,0.973L6.515,2.271L2.272,6.514L5.398,9.64 C4.985,10.378,4.66,11.169,4.425,12H0v6h4.425c0.235,0.83,0.561,1.621,0.973,2.358l-3.126,3.126l4.243,4.242l3.125-3.125 c0.738,0.413,1.53,0.738,2.36,0.974V30h6v-4.425c0.83-0.235,1.622-0.561,2.36-0.974l3.125,3.125l4.243-4.242l-3.126-3.126 c0.412-0.737,0.737-1.528,0.973-2.358H30z M24.9,23.484l-1.415,1.414l-2.874-2.873c-1.295,1.035-2.878,1.723-4.611,1.916V28h-2 v-4.059c-1.733-0.193-3.316-0.881-4.611-1.916l-2.874,2.873L5.1,23.484l2.875-2.875C6.938,19.315,6.252,17.732,6.059,16H2v-2h4.059 c0.193-1.733,0.881-3.317,1.917-4.611L5.101,6.514L6.515,5.1L9.39,7.975c1.295-1.036,2.878-1.723,4.61-1.916V2h2v4.059 c1.732,0.192,3.315,0.879,4.61,1.916L23.485,5.1l1.414,1.414l-2.875,2.875c1.036,1.294,1.724,2.878,1.917,4.611H28v2h-4.059 c-0.193,1.732-0.88,3.315-1.916,4.609L24.9,23.484z M15,10c-2.762,0-5,2.239-5,5c0,2.762,2.238,5,5,5s5-2.238,5-5 C20,12.239,17.762,10,15,10z M15,18c-1.657,0-3-1.344-3-3c0-1.657,1.343-3,3-3s3,1.343,3,3C18,16.656,16.657,18,15,18z"></path></svg>