      
      
      <?xml version="1.0" encoding="UTF-8"?>
      <svg   viewBox="6 6 20 20" fill="none" xmlns="http://www.w3.org/2000/svg">
      
            <path
                d="M13 8.75a.75.75 0 0 1 1.5 0V9h8v-.25a.75.75 0 0 1 1.5 0v2a.75.75 0 0 1-1.5 0v-.25h-8v.25a.75.75 0 0 1-1.5 0v-2Z"
                fill="currentColor"></path>
            <path fill-rule="evenodd" clip-rule="evenodd"
                d="M15 13a2 2 0 0 0-2 2v7a2 2 0 0 0 2 2h7a2 2 0 0 0 2-2v-7a2 2 0 0 0-2-2h-7Zm7 1.5h-7a.5.5 0 0 0-.5.5v7a.5.5 0 0 0 .5.5h7a.5.5 0 0 0 .5-.5v-7a.5.5 0 0 0-.5-.5Z"
                fill="currentColor"></path>
            <path
                d="M11.5 13.75a.75.75 0 0 0-.75-.75h-2a.75.75 0 0 0 0 1.5H9v8h-.25a.75.75 0 0 0 0 1.5h2a.75.75 0 0 0 0-1.5h-.25v-8h.25a.75.75 0 0 0 .75-.75Z"
                fill="currentColor"></path>
        </svg>