<svg 
 viewBox="0 0 16 16" 
 

><path d="M13.7847 14H2.21528C0.756437 14 0 13.2862 0 11.9164V4.0836C0 2.7074 0.756437 2 2.21528 2H13.7847C15.2436 2 16 2.71383 16 4.0836V11.9164C16 13.2862 15.2436 14 13.7847 14ZM1.32377 6.81672V9.18328H7.34825V6.81672H1.32377ZM8.645 6.81672V9.18328H14.6762V6.81672H8.645ZM1.32377 11.8071C1.32377 12.4309 1.66821 12.7395 2.29633 12.7395H7.34825V10.3923H1.32377V11.8071ZM13.7037 12.7395C14.325 12.7395 14.6762 12.4309 14.6762 11.8071V10.3923H8.645V12.7395H13.7037Z" fill='currentColor'></path></svg>