 <svg viewBox="0 0 24 24" xmlns="http://www.w3.org/2000/svg">
        <g fill-rule="evenodd" transform="translate(1 1)">
            <circle cx="11" cy="11" r="11" fill-opacity=".04"></circle>
            <path fill-opacity=".12"
                d="M17 20.221V17h3.221A11.06 11.06 0 0117 20.221zm-12 0A11.06 11.06 0 011.779 17H5v3.221zM20.221 5H17V1.779A11.06 11.06 0 0120.221 5zM9 .181V1H6.411A10.919 10.919 0 019 .181zM15.589 1H13V.181c.907.167 1.775.445 2.589.819zM13 21.819V21h2.589c-.814.374-1.682.652-2.589.819zm-4 0A10.919 10.919 0 016.411 21H9v.819zm-8-6.23A10.919 10.919 0 01.181 13H1v2.589zm0-9.178V9H.181C.348 8.093.626 7.225 1 6.411zM21.819 9H21V6.411c.374.814.652 1.682.819 2.589zM21 15.589V13h.819A10.919 10.919 0 0121 15.589zM5 1.779V5H1.779A11.06 11.06 0 015 1.779zM5 13h4v4H5v-4zm8 0h4v4h-4v-4zM5 5h4v4H5V5zm8 0h4v4h-4V5zm0 12v4H9v-4h4zm8-8v4h-4V9h4zm-8 0v4H9V9h4zM5 9v4H1V9h4zm8-8v4H9V1h4z">
            </path>
        </g>
    </svg>