<svg viewBox="0 0 48 48" xmlns="http://www.w3.org/2000/svg" class="shy-icon" style="width: 17px; height: 17px;">
    <g >
        <path d="M15 26V15a3 3 0 116 0v11"></path>
        <path d="M39 25v6.5C39 37.851 33.851 43 27.5 43h-1C20.149 43 15 37.851 15 31.5V25"></path>
        <path
            d="M21 29v-5a3 3 0 016 0v5M27 29v-5a3 3 0 016 0v5M33 29v-5a3 3 0 016 0v5M28 15a9.968 9.968 0 00-1.958-5.945A9.986 9.986 0 0018 5a9.986 9.986 0 00-8.042 4.055A9.968 9.968 0 008 15">
        </path>
    </g>
</svg>