<svg  viewBox="0 0 1024 1024"
 xmlns="http://www.w3.org/2000/svg" 
  width="200" height="200"><path d="M945.8432 307.2H789.504v-51.2H915.968c-82.6112-123.3664-222.8224-204.8-382.464-204.8-254.4896 0-460.8 206.3104-460.8 460.8s206.3104 460.8 460.8 460.8c180.8384 0 336.896-104.4224 412.3392-256h56.7808c-79.0528 180.7616-259.2256 307.2-469.12 307.2-282.7776 0-512-229.2224-512-512s229.2224-512 512-512c167.7056 0 316.2624 80.8448 409.6 205.5168V102.4h51.2v204.8h-48.4608z" fill="#212121" p-id="3085"></path><path d="M360.0384 285.056l135.7824 238.9504H397.312v33.28h117.1456v65.2288H397.312v33.3056h117.1456V760.32h58.5728v-104.4992h117.8368v-33.3056h-117.8368v-65.2288h117.8368v-33.28h-99.2l135.808-238.9504h-65.8944l-117.8368 218.3168-117.8112-218.3168h-65.8944z" fill="#212121" p-id="3086"></path></svg>