<svg  viewBox="0 0 30 30"><path d="M12.953 20.68v-1.258h-2.875c-1.969 0-3.422-1.297-3.422-2.883 0-1.492.946-2.727 2.602-2.727.11 0 .148-.062.148-.164 0-2.398 1.727-3.062 3.336-2.593.094.03.149.015.195-.07.758-1.352 1.922-2.47 3.946-2.47 2.562 0 4.336 2.032 4.469 4.36.023.352 0 .773-.032 1.14-.008.102.032.165.125.18 1.422.313 2.336 1.352 2.336 2.688 0 1.46-1.281 2.539-2.945 2.539h-3.281v1.258h3.28c2.36 0 4.204-1.649 4.204-3.797 0-1.555-.945-2.985-2.469-3.625.016-3.485-2.492-6-5.687-6-2.117 0-3.625 1.133-4.563 2.5-1.773-.477-4.015.898-4.054 3.094-1.766.28-2.868 1.851-2.868 3.687 0 2.29 2.008 4.14 4.68 4.14h2.875zm2.305 3.406a.615.615 0 00.617-.602v-7.328l-.047-1.445.524.555 1.187 1.18a.615.615 0 00.422.187c.32 0 .57-.227.57-.547a.53.53 0 00-.187-.414l-2.64-2.469c-.165-.148-.29-.203-.446-.203-.164 0-.29.055-.453.203l-2.64 2.469a.507.507 0 00-.188.414c0 .32.234.547.562.547.149 0 .313-.07.43-.188l1.187-1.18.524-.554-.047 1.445v7.328c0 .328.289.602.625.602z"  fill-rule="nonzero"></path></svg>