<svg viewBox="0 0 20 20" 
><path d="M2.3 15.359c0 .819.463 1.327 1.231 1.327H16.43c.768 0 1.231-.508 1.231-1.327V7.507c0-.825-.463-1.333-1.231-1.333h-3.656V4.327C12.774 3.5 12.31 3 11.536 3H3.53C2.763 3 2.3 3.501 2.3 4.327v11.032zm1.25-.248V4.574c0-.216.108-.324.33-.324h7.313c.216 0 .33.108.33.324v10.537c0 .216-.114.324-.33.324H9.81v-1.834c0-.54-.254-.807-.768-.807H6.032c-.514 0-.768.267-.768.807v1.834H3.881c-.223 0-.33-.108-.33-.324zm1.911-8.118h1.213c.146 0 .247-.102.247-.254V5.564c0-.152-.101-.253-.247-.253H5.46c-.152 0-.247.101-.247.253V6.74c0 .152.095.254.247.254zm2.94 0h1.205c.152 0 .254-.102.254-.254V5.564c0-.152-.101-.253-.254-.253H8.4c-.152 0-.247.101-.247.253V6.74c0 .152.095.254.247.254zm4.373 8.366V7.424h3.307c.222 0 .33.115.33.33v7.357c0 .216-.108.324-.33.324h-3.307v-.076zM5.46 9.417h1.213c.146 0 .247-.101.247-.253V7.989c0-.152-.101-.254-.247-.254H5.46c-.152 0-.247.102-.247.254v1.175c0 .152.095.253.247.253zm2.94 0h1.205c.152 0 .254-.101.254-.253V7.989c0-.152-.101-.254-.254-.254H8.4c-.152 0-.247.102-.247.254v1.175c0 .152.095.253.247.253zm5.687.4h1.003a.2.2 0 00.209-.21V8.63c0-.127-.083-.21-.21-.21h-1.002c-.127 0-.204.083-.204.21v.978c0 .12.077.21.204.21zM5.46 11.842h1.213c.146 0 .247-.101.247-.254v-1.174c0-.152-.101-.254-.247-.254H5.46c-.152 0-.247.102-.247.254v1.174c0 .153.095.254.247.254zm2.94 0h1.205c.152 0 .254-.101.254-.254v-1.174c0-.152-.101-.254-.254-.254H8.4c-.152 0-.247.102-.247.254v1.174c0 .153.095.254.247.254zm5.687.311h1.003a.2.2 0 00.209-.21v-.977c0-.127-.083-.21-.21-.21h-1.002c-.127 0-.204.083-.204.21v.978c0 .12.077.21.204.21zm0 2.336h1.003a.2.2 0 00.209-.21v-.977c0-.127-.083-.21-.21-.21h-1.002c-.127 0-.204.083-.204.21v.978c0 .12.077.21.204.21zm-7.846-.552c0-.133.063-.197.197-.197h2.196c.133 0 .197.064.197.197v1.498h-2.59v-1.498z"></path></svg>