
<svg width="36" height="89" viewBox="0 0 36 89" fill="none" xmlns="http://www.w3.org/2000/svg" class="pen-pc--item-icon pen-pc--item-hover" style="color: rgb(25, 25, 26);">
<g clip-path="url(#clip0_46_124536)">
<g filter="url(#filter0_f_46_124536)">
<path d="M18 7C18 6.44772 18.4477 6 19 6C19.5523 6 20 6.44772 20 7V10C20.5523 10 21 10.4477 21 11V17L26 25V39C26.5523 39 27 39.4477 27 40V90H13V40C13 39.4477 13.4477 39 14 39V25L19 17V11C19 10.4477 17.4477 10 18 10V7Z" fill="black" fill-opacity="0.2"></path>
</g>
<rect x="11" y="23.5" width="14" height="4" fill="#4F4F4F"></rect>
<rect x="11" y="23.5" width="14" height="4" fill="url(#paint0_linear_46_124536)" fill-opacity="0.8"></rect>
<rect x="11" y="23.5" width="14" height="4" fill="url(#paint1_linear_46_124536)" fill-opacity="0.5"></rect>
<path d="M17 5.5C17 4.94772 17.4477 4.5 18 4.5V4.5C18.5523 4.5 19 4.94772 19 5.5V8.5H17V5.5Z" fill="#010001"></path>
<rect x="11" y="27.5" width="14" height="10" fill="white"></rect>
<rect x="11" y="27.5" width="14" height="10" fill="url(#paint2_linear_46_124536)" fill-opacity="0.9"></rect>
<rect x="10" y="39.5" width="16" height="49" fill="white"></rect>
<rect x="10" y="39.5" width="16" height="49" fill="url(#paint3_linear_46_124536)" fill-opacity="0.9"></rect>
<path d="M16 15.5H20L25 23.5H11L16 15.5Z" fill="white"></path>
<path d="M16 15.5H20L25 23.5H11L16 15.5Z" fill="url(#paint4_linear_46_124536)" fill-opacity="0.6"></path>
<path d="M16 15.5H20L25 23.5H11L16 15.5Z" fill="url(#paint5_linear_46_124536)"></path>
<path d="M16 15.5H20L25 23.5H11L16 15.5Z" fill="url(#paint6_linear_46_124536)" fill-opacity="0.2"></path>
<path d="M11 37.5C10.4477 37.5 10 37.9477 10 38.5V39.5H26V38.5C26 37.9477 25.5523 37.5 25 37.5H11Z" fill="#4F4F4F"></path>
<path d="M11 37.5C10.4477 37.5 10 37.9477 10 38.5V39.5H26V38.5C26 37.9477 25.5523 37.5 25 37.5H11Z" fill="url(#paint7_linear_46_124536)" fill-opacity="0.8"></path>
<path d="M11 37.5C10.4477 37.5 10 37.9477 10 38.5V39.5H26V38.5C26 37.9477 25.5523 37.5 25 37.5H11Z" fill="url(#paint8_linear_46_124536)" fill-opacity="0.5"></path>
<g filter="url(#filter1_i_46_124536)">
<path d="M17 8.5C16.4477 8.5 16 8.94771 16 9.5V15.5H20V9.5C20 8.94772 19.5523 8.5 19 8.5H17Z" fill="currentColor"></path>
<path fill-rule="evenodd" clip-rule="evenodd" d="M17 46.5853L17 42.752H19L19 46.5853H17ZM17 52.3353L17 48.502H19L19 52.3353H17ZM17 58.0853L17 54.252H19L19 58.0853L17 58.0853ZM17 63.8353L17 60.002H19L19 63.8353H17ZM17 69.5853L17 65.752H19L19 69.5853H17ZM17 75.3353L17 71.502H19L19 75.3353H17ZM17 81.0853L17 77.252H19L19 81.0853H17ZM17 86.9186L17 83.002H19L19 86.9186H17Z" fill="currentColor"></path>
</g>
<path d="M16 9.5C16 8.94772 16.4477 8.5 17 8.5H19C19.5523 8.5 20 8.94772 20 9.5V15.5H16V9.5Z" fill="url(#paint9_linear_46_124536)" fill-opacity="0.6"></path>
<path d="M16 9.5C16 8.94772 16.4477 8.5 17 8.5H19C19.5523 8.5 20 8.94772 20 9.5V15.5H16V9.5Z" fill="url(#paint10_linear_46_124536)"></path>
<path d="M16 9.5C16 8.94772 16.4477 8.5 17 8.5H19C19.5523 8.5 20 8.94772 20 9.5V15.5H16V9.5Z" fill="url(#paint11_linear_46_124536)" fill-opacity="0.2"></path>
</g>
<defs>
<filter id="filter0_f_46_124536" x="9" y="2" width="22" height="92" filterUnits="userSpaceOnUse" color-interpolation-filters="sRGB">
<feFlood flood-opacity="0" result="BackgroundImageFix"></feFlood>
<feBlend mode="normal" in="SourceGraphic" in2="BackgroundImageFix" result="shape"></feBlend>
<feGaussianBlur stdDeviation="2" result="effect1_foregroundBlur_46_124536"></feGaussianBlur>
</filter>
<filter id="filter1_i_46_124536" x="16" y="8.5" width="4" height="78.6185" filterUnits="userSpaceOnUse" color-interpolation-filters="sRGB">
<feFlood flood-opacity="0" result="BackgroundImageFix"></feFlood>
<feBlend mode="normal" in="SourceGraphic" in2="BackgroundImageFix" result="shape"></feBlend>
<feColorMatrix in="SourceAlpha" type="matrix" values="0 0 0 0 0 0 0 0 0 0 0 0 0 0 0 0 0 0 127 0" result="hardAlpha"></feColorMatrix>
<feOffset dy="0.2"></feOffset>
<feGaussianBlur stdDeviation="0.450032"></feGaussianBlur>
<feComposite in2="hardAlpha" operator="arithmetic" k2="-1" k3="1"></feComposite>
<feColorMatrix type="matrix" values="0 0 0 0 0 0 0 0 0 0 0 0 0 0 0 0 0 0 0.1 0"></feColorMatrix>
<feBlend mode="normal" in2="shape" result="effect1_innerShadow_46_124536"></feBlend>
</filter>
<linearGradient id="paint0_linear_46_124536" x1="11" y1="25.6797" x2="25" y2="25.6797" gradientUnits="userSpaceOnUse">
<stop stop-color="#9B9B9B"></stop>
<stop offset="0.0599878" stop-color="#717171"></stop>
<stop offset="0.124405" stop-color="#828282"></stop>
<stop offset="0.201347" stop-color="#C7C7C7"></stop>
<stop offset="0.290816" stop-color="white"></stop>
<stop offset="0.360601" stop-color="#EDEDED"></stop>
<stop offset="0.467963" stop-color="#CCCCCC"></stop>
<stop offset="0.609322" stop-color="#A8A8A8"></stop>
<stop offset="0.821303" stop-color="#5E5E5E"></stop>
<stop offset="1" stop-color="#6F6C6C"></stop>
</linearGradient>
<linearGradient id="paint1_linear_46_124536" x1="17.6111" y1="21.5" x2="18.6401" y2="36.0972" gradientUnits="userSpaceOnUse">
<stop offset="0.120996"></stop>
<stop offset="0.716101" stop-opacity="0"></stop>
</linearGradient>
<linearGradient id="paint2_linear_46_124536" x1="10.6073" y1="29.8342" x2="24.9999" y2="29.8742" gradientUnits="userSpaceOnUse">
<stop stop-color="#E6E6E6"></stop>
<stop offset="0.157733" stop-color="#F0F0F0"></stop>
<stop offset="0.321627" stop-color="#FCFCFC"></stop>
<stop offset="0.508654" stop-color="white"></stop>
<stop offset="0.737927" stop-color="#E8E8E8"></stop>
<stop offset="0.80996" stop-color="#E6E6E6"></stop>
<stop offset="0.915338" stop-color="#EFEFEF"></stop>
<stop offset="1" stop-color="#E6E6E6"></stop>
</linearGradient>
<linearGradient id="paint3_linear_46_124536" x1="9.55124" y1="50.9376" x2="26" y2="50.9483" gradientUnits="userSpaceOnUse">
<stop stop-color="#E6E6E6"></stop>
<stop offset="0.157733" stop-color="#F0F0F0"></stop>
<stop offset="0.321627" stop-color="#FCFCFC"></stop>
<stop offset="0.508654" stop-color="white"></stop>
<stop offset="0.737927" stop-color="#E8E8E8"></stop>
<stop offset="0.80996" stop-color="#E6E6E6"></stop>
<stop offset="0.915338" stop-color="#EFEFEF"></stop>
<stop offset="1" stop-color="#E6E6E6"></stop>
</linearGradient>
<linearGradient id="paint4_linear_46_124536" x1="19.4731" y1="14.5272" x2="12.7965" y2="12.419" gradientUnits="userSpaceOnUse">
<stop offset="0.302465" stop-opacity="0"></stop>
<stop offset="1" stop-opacity="0.3"></stop>
</linearGradient>
<linearGradient id="paint5_linear_46_124536" x1="19.4731" y1="13.2543" x2="29.1852" y2="17.149" gradientUnits="userSpaceOnUse">
<stop stop-color="#505050" stop-opacity="0"></stop>
<stop offset="1" stop-color="#060606" stop-opacity="0.38"></stop>
</linearGradient>
<linearGradient id="paint6_linear_46_124536" x1="14.5" y1="20.25" x2="20.3824" y2="21.7206" gradientUnits="userSpaceOnUse">
<stop stop-color="white" stop-opacity="0"></stop>
<stop offset="0.380594" stop-color="white" stop-opacity="0.79"></stop>
<stop offset="1" stop-color="white" stop-opacity="0"></stop>
</linearGradient>
<linearGradient id="paint7_linear_46_124536" x1="10" y1="38.5899" x2="26" y2="38.5899" gradientUnits="userSpaceOnUse">
<stop stop-color="#9B9B9B"></stop>
<stop offset="0.0599878" stop-color="#717171"></stop>
<stop offset="0.124405" stop-color="#828282"></stop>
<stop offset="0.201347" stop-color="#C7C7C7"></stop>
<stop offset="0.290816" stop-color="white"></stop>
<stop offset="0.360601" stop-color="#EDEDED"></stop>
<stop offset="0.467963" stop-color="#CCCCCC"></stop>
<stop offset="0.609322" stop-color="#A8A8A8"></stop>
<stop offset="0.821303" stop-color="#5E5E5E"></stop>
<stop offset="1" stop-color="#6F6C6C"></stop>
</linearGradient>
<linearGradient id="paint8_linear_46_124536" x1="17.5556" y1="36.5" x2="17.7816" y2="43.8279" gradientUnits="userSpaceOnUse">
<stop offset="0.120996"></stop>
<stop offset="0.716101" stop-opacity="0"></stop>
</linearGradient>
<linearGradient id="paint9_linear_46_124536" x1="17.1484" y1="8.5" x2="15.2248" y2="8.70898" gradientUnits="userSpaceOnUse">
<stop offset="0.240693" stop-opacity="0"></stop>
<stop offset="1" stop-opacity="0.27"></stop>
</linearGradient>
<linearGradient id="paint10_linear_46_124536" x1="18.7896" y1="8.5" x2="21.595" y2="8.52" gradientUnits="userSpaceOnUse">
<stop stop-color="#505050" stop-opacity="0"></stop>
<stop offset="1" stop-color="#060606" stop-opacity="0.38"></stop>
</linearGradient>
<linearGradient id="paint11_linear_46_124536" x1="16.619" y1="12.7983" x2="19.1118" y2="12.8369" gradientUnits="userSpaceOnUse">
<stop stop-color="white" stop-opacity="0"></stop>
<stop offset="0.412386" stop-color="white" stop-opacity="0.76"></stop>
<stop offset="0.958175" stop-color="white" stop-opacity="0"></stop>
</linearGradient>
<clipPath id="clip0_46_124536">
<rect width="36" height="88" fill="white" transform="translate(0 0.5)"></rect>
</clipPath>
</defs>
</svg>