
<svg width="36" height="89" viewBox="0 0 36 89" fill="none" xmlns="http://www.w3.org/2000/svg" class="pen-pc--item-icon pen-pc--item-hover" style="color: rgb(90, 213, 198);">
<g clip-path="url(#clip0_46_124561)">
<g filter="url(#filter0_f_46_124561)">
<path d="M4.35267 89.7695L4.35254 40.7695L6.68027 40.7754L6.68011 37.7695L7.73361 37.7695C9.31282 35.5714 9.87805 34.3023 10.5866 32.0039L10.5866 19.7086L12.1368 18.2695L12.1368 14.5687L23.2588 5.26953L24.0679 6.26953L24.0679 18.2695L26.0906 18.2695L26.0906 30.7695C26.5331 33.4137 26.4796 34.8704 29.1468 37.7695V37.7695C29.6931 37.7695 30.136 38.2124 30.136 38.7587L30.136 40.7695V40.7695C31.4765 40.7695 32.5633 41.8563 32.5633 43.1968L32.5632 89.7695L4.35267 89.7695Z" fill="black" fill-opacity="0.2"></path>
</g>
<path d="M3.43652 41.3458C3.43652 40.7514 3.91838 40.2695 4.51278 40.2695H31.4872C32.0816 40.2695 32.5635 40.7514 32.5635 41.3458V91.2695H3.43652V41.3458Z" fill="url(#paint0_linear_46_124561)"></path>
<path d="M3.43652 41.3458C3.43652 40.7514 3.91838 40.2695 4.51278 40.2695H31.4872C32.0816 40.2695 32.5635 40.7514 32.5635 41.3458V91.2695H3.43652V41.3458Z" fill="url(#paint1_linear_46_124561)"></path>
<mask id="mask0_46_124561" style="mask-type:alpha" maskUnits="userSpaceOnUse" x="6" y="17" width="24" height="21">
<path d="M9.95382 18.8972C9.95382 18.2744 10.4587 17.7695 11.0815 17.7695H24.9188C25.5415 17.7695 26.0464 18.2744 26.0464 18.8972V29.6552C26.0464 32.6835 27.3087 35.5747 29.5295 37.6334V37.6334H6.4707V37.6334C8.69157 35.5747 9.95382 32.6835 9.95382 29.6552V18.8972Z" fill="url(#paint2_linear_46_124561)"></path>
</mask>
<g mask="url(#mask0_46_124561)">
<path d="M9.22628 18.8972C9.22628 18.2744 9.73115 17.7695 10.3539 17.7695H25.5142C26.137 17.7695 26.6419 18.2744 26.6419 18.8972V29.6554C26.6419 32.6836 27.9041 35.5749 30.125 37.6336V37.6336H5.74316V37.6336C7.96403 35.5749 9.22628 32.6836 9.22628 29.6554V18.8972Z" fill="url(#paint3_linear_46_124561)"></path>
<path opacity="0.3" d="M16.1914 17.1836H24.0284V37.2684H16.1914V17.1836Z" fill="url(#paint4_linear_46_124561)"></path>
<g filter="url(#filter1_f_46_124561)">
<path d="M11.817 16.2695H12.4181V32.3611L11.817 38.033H7.48242L9.76242 35.0496C11.095 33.3058 11.817 31.1721 11.817 28.9775V16.2695Z" fill="white"></path>
</g>
</g>
<path d="M11.9324 11.4364L11.9324 17.7705L24.0686 17.7705L24.0686 5.90555C24.0686 5.13213 23.4282 4.61118 22.8535 4.917L12.4588 10.4479C12.1394 10.6179 11.9324 11.0065 11.9324 11.4364Z" fill="currentColor"></path>
<path d="M5.86426 38.3467C5.86426 37.7523 6.25412 37.2705 6.73504 37.2705L29.2568 37.2705C29.7377 37.2705 30.1276 37.7523 30.1276 38.3467V40.2705L5.86426 40.2705L5.86426 38.3467Z" fill="currentColor"></path>
<path d="M20.0105 50.3066C20.0105 51.4112 19.1124 52.3066 18.0044 52.3066C16.8965 52.3066 15.9983 51.4112 15.9983 50.3066C15.9983 49.2021 16.8965 48.3066 18.0044 48.3066C19.1124 48.3066 20.0105 49.2021 20.0105 50.3066Z" fill="currentColor"></path>
<path d="M5.86426 38.3458C5.86426 37.7514 6.34611 37.2695 6.94051 37.2695L29.0513 37.2695C29.6457 37.2695 30.1276 37.7514 30.1276 38.3458V40.2695L5.86426 40.2695L5.86426 38.3458Z" fill="url(#paint5_linear_46_124561)"></path>
<g filter="url(#filter2_f_46_124561)">
<path d="M12.7129 11.9588V11.2971C12.7129 11.2768 12.7242 11.2583 12.7422 11.249L23.013 5.9597C23.0811 5.9246 23.1623 5.97408 23.1623 6.05074V11.9588C23.1623 14.8443 20.8231 17.1835 17.9376 17.1835C15.0521 17.1835 12.7129 14.8443 12.7129 11.9588Z" fill="url(#paint6_linear_46_124561)"></path>
</g>
</g>
<defs>
<filter id="filter0_f_46_124561" x="0.352539" y="1.26953" width="36.2109" height="92.5" filterUnits="userSpaceOnUse" color-interpolation-filters="sRGB">
<feFlood flood-opacity="0" result="BackgroundImageFix"></feFlood>
<feBlend mode="normal" in="SourceGraphic" in2="BackgroundImageFix" result="shape"></feBlend>
<feGaussianBlur stdDeviation="2" result="effect1_foregroundBlur_46_124561"></feGaussianBlur>
</filter>
<filter id="filter1_f_46_124561" x="5.48242" y="14.2695" width="8.93555" height="25.7637" filterUnits="userSpaceOnUse" color-interpolation-filters="sRGB">
<feFlood flood-opacity="0" result="BackgroundImageFix"></feFlood>
<feBlend mode="normal" in="SourceGraphic" in2="BackgroundImageFix" result="shape"></feBlend>
<feGaussianBlur stdDeviation="1" result="effect1_foregroundBlur_46_124561"></feGaussianBlur>
</filter>
<filter id="filter2_f_46_124561" x="11.6366" y="4.87199" width="12.6017" height="13.3879" filterUnits="userSpaceOnUse" color-interpolation-filters="sRGB">
<feFlood flood-opacity="0" result="BackgroundImageFix"></feFlood>
<feBlend mode="normal" in="SourceGraphic" in2="BackgroundImageFix" result="shape"></feBlend>
<feGaussianBlur stdDeviation="0.538128" result="effect1_foregroundBlur_46_124561"></feGaussianBlur>
</filter>
<linearGradient id="paint0_linear_46_124561" x1="3.13312" y1="47.2003" x2="32.7397" y2="47.2003" gradientUnits="userSpaceOnUse">
<stop stop-color="#E7E7E7"></stop>
<stop offset="0.0968806" stop-color="white"></stop>
<stop offset="0.184997" stop-color="#E7E7E7"></stop>
<stop offset="0.499295" stop-color="white"></stop>
<stop offset="0.811367" stop-color="#DCDCDC"></stop>
<stop offset="0.903389" stop-color="white"></stop>
<stop offset="1" stop-color="#E6E6E6"></stop>
</linearGradient>
<linearGradient id="paint1_linear_46_124561" x1="3.13312" y1="55.3919" x2="32.7396" y2="55.3919" gradientUnits="userSpaceOnUse">
<stop stop-color="white" stop-opacity="0.12"></stop>
<stop offset="0.28882" stop-color="#ECECEC"></stop>
<stop offset="0.746048" stop-color="#EDEDED"></stop>
<stop offset="1" stop-color="white" stop-opacity="0.1"></stop>
</linearGradient>
<linearGradient id="paint2_linear_46_124561" x1="5.743" y1="27.9473" x2="30.9956" y2="27.9473" gradientUnits="userSpaceOnUse">
<stop stop-color="white"></stop>
<stop offset="0.161573" stop-color="#F7F7F7"></stop>
<stop offset="0.28481" stop-color="#E5E5E5"></stop>
<stop offset="0.341293" stop-color="#E1E1E1"></stop>
<stop offset="1" stop-color="white"></stop>
</linearGradient>
<linearGradient id="paint3_linear_46_124561" x1="5.74316" y1="27.9473" x2="30.9958" y2="27.9473" gradientUnits="userSpaceOnUse">
<stop stop-color="white"></stop>
<stop offset="0.183842" stop-color="#EEEEEE"></stop>
<stop offset="0.28481" stop-color="white"></stop>
<stop offset="0.684622" stop-color="#E1E1E1"></stop>
<stop offset="0.896114" stop-color="#EDEDED"></stop>
<stop offset="1" stop-color="white"></stop>
</linearGradient>
<linearGradient id="paint4_linear_46_124561" x1="16.1914" y1="17.7217" x2="24.0284" y2="17.7217" gradientUnits="userSpaceOnUse">
<stop stop-color="white" stop-opacity="0"></stop>
<stop offset="0.483997" stop-color="white"></stop>
<stop offset="1" stop-color="white" stop-opacity="0"></stop>
</linearGradient>
<linearGradient id="paint5_linear_46_124561" x1="4.87496" y1="38.1716" x2="30.9984" y2="38.1716" gradientUnits="userSpaceOnUse">
<stop offset="0.0813422" stop-color="white" stop-opacity="0.26"></stop>
<stop offset="0.254109" stop-color="#2D2D2D" stop-opacity="0.06"></stop>
<stop offset="0.800628" stop-color="white" stop-opacity="0"></stop>
<stop offset="0.93217" stop-color="#7C7C7C" stop-opacity="0.12"></stop>
</linearGradient>
<linearGradient id="paint6_linear_46_124561" x1="14.8898" y1="-0.0365993" x2="19.4361" y2="16.7784" gradientUnits="userSpaceOnUse">
<stop stop-color="white"></stop>
<stop offset="1" stop-color="white" stop-opacity="0"></stop>
</linearGradient>
<clipPath id="clip0_46_124561">
<rect width="36" height="88" fill="white" transform="translate(0 0.5)"></rect>
</clipPath>
</defs>
</svg>