
<svg width="36" height="89" viewBox="0 0 36 89" fill="none" xmlns="http://www.w3.org/2000/svg" class="pen-pc--item-icon pen-pc--item-hover" style="color: rgb(242, 105, 87);">
<g clip-path="url(#clip0_46_124547)">
<g filter="url(#filter0_f_46_124547)">
<path fill-rule="evenodd" clip-rule="evenodd" d="M14.5192 7.51074C13.8839 7.51074 13.3252 8.09129 13.1494 8.93428L9.82139 24.8885C8.9163 29.2274 8.45703 33.7203 8.45703 38.2356V45.6892L8.45703 105.683H29.127L29.127 45.6893L29.127 38.2356C29.127 33.7203 28.6678 29.2274 27.7627 24.8885L24.4347 8.93428C24.2588 8.09129 23.7002 7.51074 23.0648 7.51074L14.5192 7.51074Z" fill="black" fill-opacity="0.2"></path>
</g>
<path fill-rule="evenodd" clip-rule="evenodd" d="M13.1822 5.43066C12.521 5.43066 11.9396 6.02056 11.7566 6.87711L8.29298 23.0881C7.35103 27.4969 6.87305 32.4384 6.87305 37.0264L29.1269 37.0264C29.1269 32.4384 28.6489 27.4968 27.707 23.0881L24.2434 6.87711C24.0604 6.02056 23.479 5.43066 22.8177 5.43066L13.1822 5.43066Z" fill="currentColor"></path>
<mask id="mask0_46_124547" style="mask-type:alpha" maskUnits="userSpaceOnUse" x="6" y="37" width="24" height="69">
<path d="M6.87305 37.0244H29.1269V105.183H6.87305L6.87305 37.0244Z" fill="#53A5F7"></path>
</mask>
<g mask="url(#mask0_46_124547)">
<rect x="6.87305" y="33.6846" width="22.2538" height="62.1657" fill="white"></rect>
<g style="mix-blend-mode:darken" filter="url(#filter1_f_46_124547)">
<rect x="6.87305" y="33.6846" width="11.1269" height="83.8086" fill="url(#paint0_linear_46_124547)"></rect>
</g>
<g style="mix-blend-mode:darken">
<rect x="18.3027" y="34.1846" width="10.8245" height="83.8086" fill="black" fill-opacity="0.06"></rect>
</g>
<g style="mix-blend-mode:darken">
<rect x="18.3027" y="33.6846" width="10.8245" height="83.8086" fill="url(#paint1_linear_46_124547)" fill-opacity="0.15"></rect>
</g>
</g>
<mask id="mask1_46_124547" style="mask-type:alpha" maskUnits="userSpaceOnUse" x="6" y="5" width="24" height="33">
<path d="M11.7167 6.99545C11.9206 6.08102 12.7319 5.43066 13.6688 5.43066H22.3165C23.26 5.43066 24.0752 6.09008 24.2724 7.01278L28.0454 24.6721C28.7644 28.0373 29.1269 31.469 29.1269 34.9102V37.0516H6.87305V34.1168C6.87305 30.5302 7.26682 26.9545 8.04729 23.4539L11.7167 6.99545Z" fill="#53A5F7"></path>
</mask>
<g mask="url(#mask1_46_124547)">
<g filter="url(#filter2_f_46_124547)">
<path d="M15.3919 5.43066H20.6073L22.0909 19.6853L17.9996 37.4184L13.9082 19.6853L15.3919 5.43066Z" fill="url(#paint2_linear_46_124547)"></path>
</g>
<g filter="url(#filter3_f_46_124547)">
<path d="M18 -3.69824H30.7105V46.7719H18V37.4179L22.0913 19.6853L20.6076 5.43066H18V-3.69824Z" fill="black" fill-opacity="0.05"></path>
</g>
</g>
</g>
<defs>
<filter id="filter0_f_46_124547" x="4.45703" y="3.51074" width="28.6699" height="106.172" filterUnits="userSpaceOnUse" color-interpolation-filters="sRGB">
<feFlood flood-opacity="0" result="BackgroundImageFix"></feFlood>
<feBlend mode="normal" in="SourceGraphic" in2="BackgroundImageFix" result="shape"></feBlend>
<feGaussianBlur stdDeviation="2" result="effect1_foregroundBlur_46_124547"></feGaussianBlur>
</filter>
<filter id="filter1_f_46_124547" x="5.87305" y="32.6846" width="13.127" height="85.8086" filterUnits="userSpaceOnUse" color-interpolation-filters="sRGB">
<feFlood flood-opacity="0" result="BackgroundImageFix"></feFlood>
<feBlend mode="normal" in="SourceGraphic" in2="BackgroundImageFix" result="shape"></feBlend>
<feGaussianBlur stdDeviation="0.5" result="effect1_foregroundBlur_46_124547"></feGaussianBlur>
</filter>
<filter id="filter2_f_46_124547" x="12.9082" y="4.43066" width="10.1826" height="33.9878" filterUnits="userSpaceOnUse" color-interpolation-filters="sRGB">
<feFlood flood-opacity="0" result="BackgroundImageFix"></feFlood>
<feBlend mode="normal" in="SourceGraphic" in2="BackgroundImageFix" result="shape"></feBlend>
<feGaussianBlur stdDeviation="0.5" result="effect1_foregroundBlur_46_124547"></feGaussianBlur>
</filter>
<filter id="filter3_f_46_124547" x="17" y="-4.69824" width="14.7109" height="52.4702" filterUnits="userSpaceOnUse" color-interpolation-filters="sRGB">
<feFlood flood-opacity="0" result="BackgroundImageFix"></feFlood>
<feBlend mode="normal" in="SourceGraphic" in2="BackgroundImageFix" result="shape"></feBlend>
<feGaussianBlur stdDeviation="0.5" result="effect1_foregroundBlur_46_124547"></feGaussianBlur>
</filter>
<linearGradient id="paint0_linear_46_124547" x1="1.70815" y1="94.4004" x2="15.3489" y2="94.4004" gradientUnits="userSpaceOnUse">
<stop stop-opacity="0.12"></stop>
<stop offset="0.889926" stop-opacity="0"></stop>
</linearGradient>
<linearGradient id="paint1_linear_46_124547" x1="29.7986" y1="67.262" x2="25.0168" y2="67.262" gradientUnits="userSpaceOnUse">
<stop stop-opacity="0.46"></stop>
<stop offset="1" stop-opacity="0"></stop>
</linearGradient>
<linearGradient id="paint2_linear_46_124547" x1="-2.01236" y1="-30.5956" x2="33.4052" y2="42.6789" gradientUnits="userSpaceOnUse">
<stop stop-color="white"></stop>
<stop offset="1" stop-color="white" stop-opacity="0"></stop>
</linearGradient>
<clipPath id="clip0_46_124547">
<rect width="36" height="88" fill="white" transform="translate(0 0.5)"></rect>
</clipPath>
</defs>
</svg>