
<svg width="36" height="89" viewBox="0 0 36 89" fill="none" xmlns="http://www.w3.org/2000/svg" class="pen-pc--item-icon pen-pc--item-hover" style="color: rgb(25, 25, 26);">
<g clip-path="url(#clip0_46_124491)">
<g filter="url(#filter0_f_46_124491)">
<path d="M18 89L18.4105 3.5L21.6949 15L22.516 17L23.3371 17L30.3163 45.5L30.3163 89L18 89Z" fill="black" fill-opacity="0.2"></path>
</g>
<rect x="5.68359" y="46.5918" width="24.6326" height="57.6504" fill="white"></rect>
<rect x="5.68359" y="46.5918" width="24.6326" height="57.6504" fill="url(#paint0_linear_46_124491)" fill-opacity="0.9"></rect>
<path d="M5.68359 46.5918C5.68359 44.5244 5.97257 42.4672 6.54212 40.4798L16.0773 7.20858C16.631 5.27658 19.3688 5.27658 19.9225 7.20859L29.4576 40.4798C30.0272 42.4672 30.3162 44.5244 30.3162 46.5918V46.5918H5.68359V46.5918Z" fill="white"></path>
<path d="M5.68359 46.5918C5.68359 44.5244 5.97257 42.4672 6.54212 40.4798L16.0773 7.20858C16.631 5.27658 19.3688 5.27658 19.9225 7.20859L29.4576 40.4798C30.0272 42.4672 30.3162 44.5244 30.3162 46.5918V46.5918H5.68359V46.5918Z" fill="url(#paint1_linear_46_124491)" fill-opacity="0.9"></path>
<path d="M5.68359 46.5918C5.68359 44.5244 5.97257 42.4672 6.54212 40.4798L16.0773 7.20858C16.631 5.27658 19.3688 5.27658 19.9225 7.20859L29.4576 40.4798C30.0272 42.4672 30.3162 44.5244 30.3162 46.5918V46.5918H5.68359V46.5918Z" fill="url(#paint2_linear_46_124491)"></path>
<path d="M5.68359 46.5918C5.68359 44.5244 5.97257 42.4672 6.54212 40.4798L16.0773 7.20858C16.631 5.27658 19.3688 5.27658 19.9225 7.20859L29.4576 40.4798C30.0272 42.4672 30.3162 44.5244 30.3162 46.5918V46.5918H5.68359V46.5918Z" fill="url(#paint3_linear_46_124491)"></path>
<mask id="mask0_46_124491" style="mask-type:alpha" maskUnits="userSpaceOnUse" x="5" y="5" width="26" height="42">
<path d="M5.68359 46.5918C5.68359 44.5244 5.97257 42.4672 6.54212 40.4798L16.0773 7.20858C16.631 5.27658 19.3688 5.27658 19.9225 7.20859L29.4576 40.4798C30.0272 42.4672 30.3162 44.5244 30.3162 46.5918V46.5918H5.68359V46.5918Z" fill="white"></path>
<path d="M5.68359 46.5918C5.68359 44.5244 5.97257 42.4672 6.54212 40.4798L16.0773 7.20858C16.631 5.27658 19.3688 5.27658 19.9225 7.20859L29.4576 40.4798C30.0272 42.4672 30.3162 44.5244 30.3162 46.5918V46.5918H5.68359V46.5918Z" fill="url(#paint4_linear_46_124491)" fill-opacity="0.9"></path>
</mask>
<g mask="url(#mask0_46_124491)">
<path d="M46.167 -15.5918L2.02148 15.4494L2.85081 17.1988L46.9964 -13.8424L46.167 -15.5918Z" fill="#B7B9BD"></path>
<path d="M46.167 -5.97168L2.02148 25.0695L2.85081 26.8189L46.9964 -4.22225L46.167 -5.97168Z" fill="#B7B9BD"></path>
<path d="M2.02148 34.6906L46.167 3.64941L46.9964 5.39885L2.85081 36.44L2.02148 34.6906Z" fill="#B7B9BD"></path>
<path d="M46.167 13.2705L2.02148 44.3117L2.85081 46.0611L46.9964 15.0199L46.167 13.2705Z" fill="#B7B9BD"></path>
<path d="M2.02148 53.9328L46.167 22.8916L46.9964 24.641L2.85081 55.6822L2.02148 53.9328Z" fill="#B7B9BD"></path>
<path d="M46.167 32.5127L2.02148 63.5539L2.85081 65.3033L46.9964 34.2621L46.167 32.5127Z" fill="#B7B9BD"></path>
</g>
<mask id="mask1_46_124491" style="mask-type:alpha" maskUnits="userSpaceOnUse" x="5" y="5" width="26" height="42">
<path d="M5.68359 46.5918C5.68359 44.5244 5.97257 42.4672 6.54212 40.4798L16.0773 7.20858C16.631 5.27658 19.3688 5.27658 19.9225 7.20859L29.4576 40.4798C30.0272 42.4672 30.3162 44.5244 30.3162 46.5918V46.5918H5.68359V46.5918Z" fill="white"></path>
<path d="M5.68359 46.5918C5.68359 44.5244 5.97257 42.4672 6.54212 40.4798L16.0773 7.20858C16.631 5.27658 19.3688 5.27658 19.9225 7.20859L29.4576 40.4798C30.0272 42.4672 30.3162 44.5244 30.3162 46.5918V46.5918H5.68359V46.5918Z" fill="url(#paint5_linear_46_124491)" fill-opacity="0.9"></path>
</mask>
<g mask="url(#mask1_46_124491)">
<g filter="url(#filter1_f_46_124491)">
<path d="M25.8666 65.856L19.8193 2.89844L21.7667 67.1043L25.8666 65.856Z" fill="url(#paint6_linear_46_124491)"></path>
</g>
</g>
</g>
<defs>
<filter id="filter0_f_46_124491" x="14" y="-0.5" width="20.3164" height="93.5" filterUnits="userSpaceOnUse" color-interpolation-filters="sRGB">
<feFlood flood-opacity="0" result="BackgroundImageFix"></feFlood>
<feBlend mode="normal" in="SourceGraphic" in2="BackgroundImageFix" result="shape"></feBlend>
<feGaussianBlur stdDeviation="2" result="effect1_foregroundBlur_46_124491"></feGaussianBlur>
</filter>
<filter id="filter1_f_46_124491" x="13.8193" y="-3.10156" width="18.0469" height="76.2061" filterUnits="userSpaceOnUse" color-interpolation-filters="sRGB">
<feFlood flood-opacity="0" result="BackgroundImageFix"></feFlood>
<feBlend mode="normal" in="SourceGraphic" in2="BackgroundImageFix" result="shape"></feBlend>
<feGaussianBlur stdDeviation="3" result="effect1_foregroundBlur_46_124491"></feGaussianBlur>
</filter>
<linearGradient id="paint0_linear_46_124491" x1="4.99271" y1="60.0486" x2="30.3162" y2="60.0701" gradientUnits="userSpaceOnUse">
<stop stop-color="#E6E6E6"></stop>
<stop offset="0.157733" stop-color="#F0F0F0"></stop>
<stop offset="0.321627" stop-color="#FCFCFC"></stop>
<stop offset="0.508654" stop-color="white"></stop>
<stop offset="0.737927" stop-color="#E8E8E8"></stop>
<stop offset="0.80996" stop-color="#E6E6E6"></stop>
<stop offset="0.915338" stop-color="#EFEFEF"></stop>
<stop offset="1" stop-color="#E6E6E6"></stop>
</linearGradient>
<linearGradient id="paint1_linear_46_124491" x1="4.99271" y1="43.0654" x2="30.3149" y2="43.2471" gradientUnits="userSpaceOnUse">
<stop stop-color="#E6E6E6"></stop>
<stop offset="0.157733" stop-color="#F0F0F0"></stop>
<stop offset="0.321627" stop-color="#FCFCFC"></stop>
<stop offset="0.508654" stop-color="white"></stop>
<stop offset="0.737927" stop-color="#E8E8E8"></stop>
<stop offset="0.80996" stop-color="#E6E6E6"></stop>
<stop offset="0.915338" stop-color="#EFEFEF"></stop>
<stop offset="1" stop-color="#E6E6E6"></stop>
</linearGradient>
<linearGradient id="paint2_linear_46_124491" x1="29.4389" y1="28.6716" x2="23.8555" y2="30.0285" gradientUnits="userSpaceOnUse">
<stop stop-color="#E0E0E0"></stop>
<stop offset="1" stop-color="#ADADAD" stop-opacity="0"></stop>
</linearGradient>
<linearGradient id="paint3_linear_46_124491" x1="6.38583" y1="24.6607" x2="12.9713" y2="26.8743" gradientUnits="userSpaceOnUse">
<stop stop-color="#E0E0E0"></stop>
<stop offset="1" stop-color="#ADADAD" stop-opacity="0"></stop>
</linearGradient>
<linearGradient id="paint4_linear_46_124491" x1="4.99271" y1="43.0654" x2="30.3149" y2="43.2471" gradientUnits="userSpaceOnUse">
<stop stop-color="#E6E6E6"></stop>
<stop offset="0.157733" stop-color="#F0F0F0"></stop>
<stop offset="0.321627" stop-color="#FCFCFC"></stop>
<stop offset="0.508654" stop-color="white"></stop>
<stop offset="0.737927" stop-color="#E8E8E8"></stop>
<stop offset="0.80996" stop-color="#E6E6E6"></stop>
<stop offset="0.915338" stop-color="#EFEFEF"></stop>
<stop offset="1" stop-color="#E6E6E6"></stop>
</linearGradient>
<linearGradient id="paint5_linear_46_124491" x1="4.99271" y1="43.0654" x2="30.3149" y2="43.2471" gradientUnits="userSpaceOnUse">
<stop stop-color="#E6E6E6"></stop>
<stop offset="0.157733" stop-color="#F0F0F0"></stop>
<stop offset="0.321627" stop-color="#FCFCFC"></stop>
<stop offset="0.508654" stop-color="white"></stop>
<stop offset="0.737927" stop-color="#E8E8E8"></stop>
<stop offset="0.80996" stop-color="#E6E6E6"></stop>
<stop offset="0.915338" stop-color="#EFEFEF"></stop>
<stop offset="1" stop-color="#E6E6E6"></stop>
</linearGradient>
<linearGradient id="paint6_linear_46_124491" x1="-47.1464" y1="115.933" x2="56.9443" y2="15.246" gradientUnits="userSpaceOnUse">
<stop stop-color="#CDCDCD"></stop>
<stop offset="1" stop-color="#808080" stop-opacity="0"></stop>
</linearGradient>
<clipPath id="clip0_46_124491">
<rect width="36" height="88" fill="white" transform="translate(0 0.5)"></rect>
</clipPath>
</defs>
</svg>